{
  "source": "C:\\Users\\Peter\\Desktop\\stuff\\MIUN\\quantitative_research\\video_compression\\videos\\BVI-HD\\BVI-HD_CDVL_videos\\ORIG\\BridgeRiver_1920x1080_30fps.mp4",
  "output": "C:\\Users\\Peter\\Desktop\\stuff\\MIUN\\quantitative_research\\video_compression\\compressed_videos\\BVI-HD\\hevc\\4\\BridgeRiver_1920x1080_30fps_hevc.mp4",
  "codec": "hevc",
  "ok": "Input #0, mov,mp4,m4a,3gp,3g2,mj2, from 'C:\\Users\\Peter\\Desktop\\stuff\\MIUN\\quantitative_research\\video_compression\\videos\\BVI-HD\\BVI-HD_CDVL_videos\\ORIG\\BridgeRiver_1920x1080_30fps.mp4':\n  Metadata:\n    major_brand     : isom\n    minor_version   : 512\n    compatible_brands: isomiso2avc1mp41\n    encoder         : Lavf54.28.101\n  Duration: 00:00:05.00, start: 0.000000, bitrate: 274913 kb/s\n  Stream #0:0[0x1](und): Video: h264 (High 4:4:4 Predictive) (avc1 / 0x31637661), yuv420p(progressive), 1920x1080, 274910 kb/s, 30 fps, 30 tbr, 30 tbn (default)\n    Metadata:\n      handler_name    : VideoHandler\n      vendor_id       : [0][0][0][0]\n[out#0/mp4 @ 00000253fd6f1700] Codec AVOption b:a (set bitrate (in bits/s)) has not been used for any stream. The most likely reason is either wrong type (e.g. a video option with no video streams) or that it is a private option of some decoder which was not actually used for any stream.\nStream mapping:\n  Stream #0:0 -> #0:0 (h264 (native) -> hevc (libx265))\nPress [q] to stop, [?] for help\n[libx265 @ 00000253fe1a0180] Unknown option: \"aq-mode.\nx265 [info]: HEVC encoder version 4.1+190-8f11c33ac\nx265 [info]: build info [Windows][GCC 15.1.0][64 bit] 10bit\nx265 [info]: using cpu capabilities: MMX2 SSE2Fast LZCNT SSSE3 SSE4.2 AVX FMA3 BMI2 AVX2\nx265 [info]: Main 10 profile, Level-4 (Main tier)\nx265 [info]: Thread pool created using 12 threads\nx265 [info]: Slices                              : 1\nx265 [info]: frame threads / pool features       : 3 / wpp(17 rows)\nx265 [info]: Coding QT: max CU size, min CU size : 64 / 8\nx265 [info]: Residual QT: max TU size, max depth : 32 / 1 inter / 1 intra\nx265 [info]: ME / range / subpel / merge         : star / 57 / 3 / 3\nx265 [info]: Keyframe min / max / scenecut / bias  : 25 / 250 / 40 / 5.00 \nx265 [info]: Lookahead / bframes / badapt        : 25 / 4 / 2\nx265 [info]: b-pyramid / weightp / weightb       : 1 / 1 / 0\nx265 [info]: References / ref-limit  cu / depth  : 4 / on / on\nx265 [info]: AQ: mode / str / qg-size / cu-tree  : 2 / 1.0 / 32 / 1\nx265 [info]: Rate Control / qCompress            : ABR-4000 kbps / 0.60\nx265 [info]: VBV/HRD buffer / max-rate / init    : 4000 / 4000 / 0.750\nx265 [info]: tools: rect limit-modes rd=4 psy-rd=2.00 rdoq=2 psy-rdoq=1.00\nx265 [info]: tools: rskip mode=1 signhide tmvp strong-intra-smoothing lslices=4\nx265 [info]: tools: deblock sao dhdr10-info\nOutput #0, mp4, to 'C:\\Users\\Peter\\Desktop\\stuff\\MIUN\\quantitative_research\\video_compression\\compressed_videos\\BVI-HD\\hevc\\4\\BridgeRiver_1920x1080_30fps_hevc.mp4':\n  Metadata:\n    major_brand     : isom\n    minor_version   : 512\n    compatible_brands: isomiso2avc1mp41\n    encoder         : Lavf62.3.100\n  Stream #0:0(und): Video: hevc (hev1 / 0x31766568), yuv420p10le(tv, progressive), 1920x1080, q=2-31, 4000 kb/s, 30 fps, 15360 tbn (default)\n    Metadata:\n      encoder         : Lavc62.11.100 libx265\n      handler_name    : VideoHandler\n      vendor_id       : [0][0][0][0]\n    Side data:\n      cpb: bitrate max/min/avg: 4000000/0/4000000 buffer size: 4000000 vbv_delay: N/A\nframe=    0 fps=0.0 q=0.0 size=       0KiB time=N/A bitrate=N/A speed=N/A elapsed=0:00:01.04    \nframe=    0 fps=0.0 q=0.0 size=       0KiB time=N/A bitrate=N/A speed=N/A elapsed=0:00:01.57    \nframe=    0 fps=0.0 q=0.0 size=       0KiB time=N/A bitrate=N/A speed=N/A elapsed=0:00:02.14    \nframe=    0 fps=0.0 q=0.0 size=       0KiB time=N/A bitrate=N/A speed=N/A elapsed=0:00:02.72    \nframe=    0 fps=0.0 q=0.0 size=       0KiB time=N/A bitrate=N/A speed=N/A elapsed=0:00:03.25    \nframe=    0 fps=0.0 q=0.0 size=       0KiB time=N/A bitrate=N/A speed=N/A elapsed=0:00:03.80    \nframe=    0 fps=0.0 q=0.0 size=       0KiB time=N/A bitrate=N/A speed=N/A elapsed=0:00:04.32    \nframe=    0 fps=0.0 q=0.0 size=       0KiB time=N/A bitrate=N/A speed=N/A elapsed=0:00:04.84    \nframe=    0 fps=0.0 q=0.0 size=       0KiB time=N/A bitrate=N/A speed=N/A elapsed=0:00:05.39    \nframe=    0 fps=0.0 q=0.0 size=       0KiB time=N/A bitrate=N/A speed=N/A elapsed=0:00:05.92    \nframe=    0 fps=0.0 q=0.0 size=       0KiB time=N/A bitrate=N/A speed=N/A elapsed=0:00:06.46    \nframe=    0 fps=0.0 q=0.0 size=       0KiB time=N/A bitrate=N/A speed=N/A elapsed=0:00:06.99    \nframe=    0 fps=0.0 q=0.0 size=       0KiB time=N/A bitrate=N/A speed=N/A elapsed=0:00:07.52    \nframe=    0 fps=0.0 q=0.0 size=       0KiB time=N/A bitrate=N/A speed=N/A elapsed=0:00:08.04    \nframe=    0 fps=0.0 q=0.0 size=       0KiB time=N/A bitrate=N/A speed=N/A elapsed=0:00:08.57    \nframe=    0 fps=0.0 q=0.0 size=       0KiB time=N/A bitrate=N/A speed=N/A elapsed=0:00:09.10    \nframe=    0 fps=0.0 q=0.0 size=       0KiB time=N/A bitrate=N/A speed=N/A elapsed=0:00:09.63    \nframe=    0 fps=0.0 q=0.0 size=       0KiB time=N/A bitrate=N/A speed=N/A elapsed=0:00:10.16    \nframe=    0 fps=0.0 q=0.0 size=       0KiB time=N/A bitrate=N/A speed=N/A elapsed=0:00:10.68    \nframe=    0 fps=0.0 q=0.0 size=       0KiB time=N/A bitrate=N/A speed=N/A elapsed=0:00:11.19    \nframe=    1 fps=0.1 q=34.4 size=       0KiB time=-00:00:00.03 bitrate=N/A speed=N/A elapsed=0:00:11.72    \nframe=    1 fps=0.1 q=34.4 size=       0KiB time=-00:00:00.03 bitrate=N/A speed=N/A elapsed=0:00:12.24    \nframe=    1 fps=0.1 q=34.4 size=       0KiB time=-00:00:00.03 bitrate=N/A speed=N/A elapsed=0:00:12.77    \nframe=    1 fps=0.1 q=34.4 size=       0KiB time=-00:00:00.03 bitrate=N/A speed=N/A elapsed=0:00:13.29    \nframe=    2 fps=0.1 q=40.6 size=       0KiB time=00:00:00.00 bitrate=N/A speed=   0x elapsed=0:00:13.83    \nframe=    3 fps=0.2 q=44.1 size=       0KiB time=00:00:00.03 bitrate=  10.6kbits/s speed=0.00232x elapsed=0:00:14.35    \nframe=    4 fps=0.3 q=45.1 size=       0KiB time=00:00:00.06 bitrate=   5.3kbits/s speed=0.00448x elapsed=0:00:14.87    \nframe=    4 fps=0.3 q=45.1 size=       0KiB time=00:00:00.06 bitrate=   5.3kbits/s speed=0.00433x elapsed=0:00:15.41    \nframe=    4 fps=0.3 q=45.1 size=       0KiB time=00:00:00.06 bitrate=   5.3kbits/s speed=0.00418x elapsed=0:00:15.95    \nframe=    5 fps=0.3 q=45.1 size=       0KiB time=00:00:00.10 bitrate=   3.5kbits/s speed=0.00607x elapsed=0:00:16.48    \nframe=    5 fps=0.3 q=45.1 size=       0KiB time=00:00:00.10 bitrate=   3.5kbits/s speed=0.00588x elapsed=0:00:16.99    \nframe=    5 fps=0.3 q=45.1 size=       0KiB time=00:00:00.10 bitrate=   3.5kbits/s speed=0.00571x elapsed=0:00:17.51    \nframe=    5 fps=0.3 q=45.1 size=       0KiB time=00:00:00.10 bitrate=   3.5kbits/s speed=0.00554x elapsed=0:00:18.04    \nframe=    6 fps=0.3 q=45.1 size=       0KiB time=00:00:00.13 bitrate=   2.6kbits/s speed=0.00717x elapsed=0:00:18.58    \nframe=    6 fps=0.3 q=45.1 size=       0KiB time=00:00:00.13 bitrate=   2.6kbits/s speed=0.00697x elapsed=0:00:19.12    \nframe=    7 fps=0.4 q=38.0 size=       0KiB time=00:00:00.16 bitrate=   2.1kbits/s speed=0.00848x elapsed=0:00:19.65    \nframe=    7 fps=0.3 q=38.0 size=       0KiB time=00:00:00.16 bitrate=   2.1kbits/s speed=0.00825x elapsed=0:00:20.19    \nframe=    8 fps=0.4 q=42.8 size=       0KiB time=00:00:00.20 bitrate=   1.8kbits/s speed=0.00966x elapsed=0:00:20.70    \nframe=    9 fps=0.4 q=44.9 size=       0KiB time=00:00:00.23 bitrate=   1.5kbits/s speed=0.011x elapsed=0:00:21.24    \nframe=   10 fps=0.5 q=44.2 size=       0KiB time=00:00:00.26 bitrate=   1.3kbits/s speed=0.0122x elapsed=0:00:21.77    \nframe=   10 fps=0.4 q=44.2 size=       0KiB time=00:00:00.26 bitrate=   1.3kbits/s speed=0.012x elapsed=0:00:22.30    \nframe=   10 fps=0.4 q=44.2 size=       0KiB time=00:00:00.26 bitrate=   1.3kbits/s speed=0.0117x elapsed=0:00:22.82    \nframe=   10 fps=0.4 q=44.2 size=       0KiB time=00:00:00.26 bitrate=   1.3kbits/s speed=0.0114x elapsed=0:00:23.35    \nframe=   11 fps=0.5 q=43.2 size=       0KiB time=00:00:00.30 bitrate=   1.2kbits/s speed=0.0126x elapsed=0:00:23.87    \nframe=   11 fps=0.5 q=43.2 size=       0KiB time=00:00:00.30 bitrate=   1.2kbits/s speed=0.0123x elapsed=0:00:24.38    \nframe=   11 fps=0.4 q=43.2 size=       0KiB time=00:00:00.30 bitrate=   1.2kbits/s speed=0.012x elapsed=0:00:24.91    \nframe=   12 fps=0.5 q=37.9 size=       0KiB time=00:00:00.33 bitrate=   1.1kbits/s speed=0.0131x elapsed=0:00:25.45    \nframe=   12 fps=0.5 q=37.9 size=       0KiB time=00:00:00.33 bitrate=   1.1kbits/s speed=0.0128x elapsed=0:00:25.99    \nframe=   12 fps=0.5 q=37.9 size=       0KiB time=00:00:00.33 bitrate=   1.1kbits/s speed=0.0126x elapsed=0:00:26.52    \nframe=   13 fps=0.5 q=41.9 size=       0KiB time=00:00:00.36 bitrate=   1.0kbits/s speed=0.0135x elapsed=0:00:27.06    \nframe=   13 fps=0.5 q=41.9 size=       0KiB time=00:00:00.36 bitrate=   1.0kbits/s speed=0.0133x elapsed=0:00:27.58    \nframe=   14 fps=0.5 q=42.9 size=     256KiB time=00:00:00.40 bitrate=5243.8kbits/s speed=0.0142x elapsed=0:00:28.10    \nframe=   14 fps=0.5 q=42.9 size=     256KiB time=00:00:00.40 bitrate=5243.8kbits/s speed=0.014x elapsed=0:00:28.62    \nframe=   14 fps=0.5 q=42.9 size=     256KiB time=00:00:00.40 bitrate=5243.8kbits/s speed=0.0137x elapsed=0:00:29.13    \nframe=   15 fps=0.5 q=43.0 size=     256KiB time=00:00:00.43 bitrate=4840.4kbits/s speed=0.0146x elapsed=0:00:29.68    \nframe=   15 fps=0.5 q=43.0 size=     256KiB time=00:00:00.43 bitrate=4840.4kbits/s speed=0.0143x elapsed=0:00:30.26    \nframe=   15 fps=0.5 q=43.0 size=     256KiB time=00:00:00.43 bitrate=4840.4kbits/s speed=0.0141x elapsed=0:00:30.82    \nframe=   15 fps=0.5 q=43.0 size=     256KiB time=00:00:00.43 bitrate=4840.4kbits/s speed=0.0138x elapsed=0:00:31.46    \nframe=   15 fps=0.5 q=43.0 size=     256KiB time=00:00:00.43 bitrate=4840.4kbits/s speed=0.0135x elapsed=0:00:32.07    \nframe=   15 fps=0.5 q=43.0 size=     256KiB time=00:00:00.43 bitrate=4840.4kbits/s speed=0.0132x elapsed=0:00:32.70    \nframe=   15 fps=0.5 q=43.0 size=     256KiB time=00:00:00.43 bitrate=4840.4kbits/s speed=0.013x elapsed=0:00:33.29    \nframe=   16 fps=0.5 q=43.0 size=     256KiB time=00:00:00.46 bitrate=4494.6kbits/s speed=0.0138x elapsed=0:00:33.84    \nframe=   16 fps=0.5 q=43.0 size=     256KiB time=00:00:00.46 bitrate=4494.6kbits/s speed=0.0136x elapsed=0:00:34.39    \nframe=   16 fps=0.5 q=43.0 size=     256KiB time=00:00:00.46 bitrate=4494.6kbits/s speed=0.0133x elapsed=0:00:34.95    \nframe=   16 fps=0.5 q=43.0 size=     256KiB time=00:00:00.46 bitrate=4494.6kbits/s speed=0.0131x elapsed=0:00:35.52    \nframe=   16 fps=0.4 q=43.0 size=     256KiB time=00:00:00.46 bitrate=4494.6kbits/s speed=0.0129x elapsed=0:00:36.09    \nframe=   16 fps=0.4 q=43.0 size=     256KiB time=00:00:00.46 bitrate=4494.6kbits/s speed=0.0127x elapsed=0:00:36.62    \nframe=   17 fps=0.5 q=38.2 size=     256KiB time=00:00:00.50 bitrate=4195.0kbits/s speed=0.0134x elapsed=0:00:37.20    \nframe=   17 fps=0.5 q=38.2 size=     256KiB time=00:00:00.50 bitrate=4195.0kbits/s speed=0.0132x elapsed=0:00:37.74    \nframe=   18 fps=0.5 q=41.7 size=     256KiB time=00:00:00.53 bitrate=3932.8kbits/s speed=0.0139x elapsed=0:00:38.32    \nframe=   18 fps=0.5 q=41.7 size=     256KiB time=00:00:00.53 bitrate=3932.8kbits/s speed=0.0137x elapsed=0:00:38.85    \nframe=   18 fps=0.5 q=41.7 size=     256KiB time=00:00:00.53 bitrate=3932.8kbits/s speed=0.0135x elapsed=0:00:39.38    \nframe=   18 fps=0.5 q=41.7 size=     256KiB time=00:00:00.53 bitrate=3932.8kbits/s speed=0.0134x elapsed=0:00:39.90    \nframe=   19 fps=0.5 q=43.0 size=     256KiB time=00:00:00.56 bitrate=3701.5kbits/s speed=0.014x elapsed=0:00:40.44    \nframe=   20 fps=0.5 q=43.1 size=     256KiB time=00:00:00.60 bitrate=3495.8kbits/s speed=0.0147x elapsed=0:00:40.94    \nframe=   20 fps=0.5 q=43.1 size=     256KiB time=00:00:00.60 bitrate=3495.8kbits/s speed=0.0145x elapsed=0:00:41.46    \nframe=   20 fps=0.5 q=43.1 size=     256KiB time=00:00:00.60 bitrate=3495.8kbits/s speed=0.0143x elapsed=0:00:41.98    \nframe=   20 fps=0.5 q=43.1 size=     256KiB time=00:00:00.60 bitrate=3495.8kbits/s speed=0.0141x elapsed=0:00:42.49    \nframe=   21 fps=0.5 q=43.1 size=     256KiB time=00:00:00.63 bitrate=3311.9kbits/s speed=0.0147x elapsed=0:00:43.01    \nframe=   21 fps=0.5 q=43.1 size=     256KiB time=00:00:00.63 bitrate=3311.9kbits/s speed=0.0145x elapsed=0:00:43.55    \nframe=   21 fps=0.5 q=43.1 size=     256KiB time=00:00:00.63 bitrate=3311.9kbits/s speed=0.0144x elapsed=0:00:44.12    \nframe=   21 fps=0.5 q=43.1 size=     256KiB time=00:00:00.63 bitrate=3311.9kbits/s speed=0.0142x elapsed=0:00:44.65    \nframe=   21 fps=0.5 q=43.1 size=     256KiB time=00:00:00.63 bitrate=3311.9kbits/s speed=0.014x elapsed=0:00:45.16    \nframe=   21 fps=0.5 q=43.1 size=     256KiB time=00:00:00.63 bitrate=3311.9kbits/s speed=0.0138x elapsed=0:00:45.72    \nframe=   22 fps=0.5 q=38.4 size=     256KiB time=00:00:00.66 bitrate=3146.3kbits/s speed=0.0144x elapsed=0:00:46.29    \nframe=   23 fps=0.5 q=41.3 size=     256KiB time=00:00:00.70 bitrate=2996.4kbits/s speed=0.0149x elapsed=0:00:46.82    \nframe=   23 fps=0.5 q=41.3 size=     256KiB time=00:00:00.70 bitrate=2996.4kbits/s speed=0.0148x elapsed=0:00:47.34    \nframe=   23 fps=0.5 q=41.3 size=     256KiB time=00:00:00.70 bitrate=2996.4kbits/s speed=0.0146x elapsed=0:00:47.89    \nframe=   23 fps=0.5 q=41.3 size=     256KiB time=00:00:00.70 bitrate=2996.4kbits/s speed=0.0145x elapsed=0:00:48.41    \nframe=   24 fps=0.5 q=43.1 size=     256KiB time=00:00:00.73 bitrate=2860.2kbits/s speed=0.015x elapsed=0:00:48.94    \nframe=   24 fps=0.5 q=43.1 size=     256KiB time=00:00:00.73 bitrate=2860.2kbits/s speed=0.0148x elapsed=0:00:49.49    \nframe=   24 fps=0.5 q=43.1 size=     256KiB time=00:00:00.73 bitrate=2860.2kbits/s speed=0.0147x elapsed=0:00:50.01    \nframe=   24 fps=0.5 q=43.1 size=     256KiB time=00:00:00.73 bitrate=2860.2kbits/s speed=0.0145x elapsed=0:00:50.53    \nframe=   24 fps=0.5 q=43.1 size=     256KiB time=00:00:00.73 bitrate=2860.2kbits/s speed=0.0144x elapsed=0:00:51.06    \nframe=   24 fps=0.5 q=43.1 size=     256KiB time=00:00:00.73 bitrate=2860.2kbits/s speed=0.0142x elapsed=0:00:51.62    \nframe=   25 fps=0.5 q=43.1 size=     256KiB time=00:00:00.76 bitrate=2735.9kbits/s speed=0.0147x elapsed=0:00:52.18    \nframe=   25 fps=0.5 q=43.1 size=     256KiB time=00:00:00.76 bitrate=2735.9kbits/s speed=0.0145x elapsed=0:00:52.82    \nframe=   25 fps=0.5 q=43.1 size=     256KiB time=00:00:00.76 bitrate=2735.9kbits/s speed=0.0143x elapsed=0:00:53.50    \nframe=   25 fps=0.5 q=43.1 size=     256KiB time=00:00:00.76 bitrate=2735.9kbits/s speed=0.0142x elapsed=0:00:54.08    \nframe=   25 fps=0.5 q=43.1 size=     256KiB time=00:00:00.76 bitrate=2735.9kbits/s speed=0.014x elapsed=0:00:54.62    \nframe=   26 fps=0.5 q=38.3 size=     256KiB time=00:00:00.80 bitrate=2621.9kbits/s speed=0.0145x elapsed=0:00:55.13    \nframe=   26 fps=0.5 q=38.3 size=     256KiB time=00:00:00.80 bitrate=2621.9kbits/s speed=0.0144x elapsed=0:00:55.68    \nframe=   27 fps=0.5 q=41.2 size=     256KiB time=00:00:00.83 bitrate=2517.0kbits/s speed=0.0148x elapsed=0:00:56.24    \nframe=   27 fps=0.5 q=41.2 size=     256KiB time=00:00:00.83 bitrate=2517.0kbits/s speed=0.0147x elapsed=0:00:56.76    \nframe=   27 fps=0.5 q=41.2 size=     256KiB time=00:00:00.83 bitrate=2517.0kbits/s speed=0.0145x elapsed=0:00:57.28    \nframe=   27 fps=0.5 q=41.2 size=     256KiB time=00:00:00.83 bitrate=2517.0kbits/s speed=0.0144x elapsed=0:00:57.80    \nframe=   27 fps=0.5 q=41.2 size=     256KiB time=00:00:00.83 bitrate=2517.0kbits/s speed=0.0143x elapsed=0:00:58.34    \nframe=   27 fps=0.5 q=41.2 size=     256KiB time=00:00:00.83 bitrate=2517.0kbits/s speed=0.0142x elapsed=0:00:58.88    \nframe=   28 fps=0.5 q=43.0 size=     256KiB time=00:00:00.86 bitrate=2420.2kbits/s speed=0.0146x elapsed=0:00:59.44    \nframe=   28 fps=0.5 q=43.0 size=     256KiB time=00:00:00.86 bitrate=2420.2kbits/s speed=0.0144x elapsed=0:01:00.01    \nframe=   28 fps=0.5 q=43.0 size=     256KiB time=00:00:00.86 bitrate=2420.2kbits/s speed=0.0143x elapsed=0:01:00.55    \nframe=   28 fps=0.5 q=43.0 size=     256KiB time=00:00:00.86 bitrate=2420.2kbits/s speed=0.0142x elapsed=0:01:01.10    \nframe=   29 fps=0.5 q=43.1 size=     256KiB time=00:00:00.90 bitrate=2330.6kbits/s speed=0.0146x elapsed=0:01:01.66    \nframe=   29 fps=0.5 q=43.1 size=     256KiB time=00:00:00.90 bitrate=2330.6kbits/s speed=0.0145x elapsed=0:01:02.18    \nframe=   29 fps=0.5 q=43.1 size=     256KiB time=00:00:00.90 bitrate=2330.6kbits/s speed=0.0143x elapsed=0:01:02.73    \nframe=   29 fps=0.5 q=43.1 size=     256KiB time=00:00:00.90 bitrate=2330.6kbits/s speed=0.0142x elapsed=0:01:03.28    \nframe=   30 fps=0.5 q=43.1 size=     512KiB time=00:00:00.93 bitrate=4494.3kbits/s speed=0.0146x elapsed=0:01:03.81    \nframe=   30 fps=0.5 q=43.1 size=     512KiB time=00:00:00.93 bitrate=4494.3kbits/s speed=0.0145x elapsed=0:01:04.35    \nframe=   30 fps=0.5 q=43.1 size=     512KiB time=00:00:00.93 bitrate=4494.3kbits/s speed=0.0144x elapsed=0:01:04.88    \nframe=   30 fps=0.5 q=43.1 size=     512KiB time=00:00:00.93 bitrate=4494.3kbits/s speed=0.0143x elapsed=0:01:05.44    \nframe=   30 fps=0.5 q=43.1 size=     512KiB time=00:00:00.93 bitrate=4494.3kbits/s speed=0.0141x elapsed=0:01:05.97    \nframe=   30 fps=0.5 q=43.1 size=     512KiB time=00:00:00.93 bitrate=4494.3kbits/s speed=0.014x elapsed=0:01:06.49    \nframe=   30 fps=0.4 q=43.1 size=     512KiB time=00:00:00.93 bitrate=4494.3kbits/s speed=0.0139x elapsed=0:01:07.02    \nframe=   31 fps=0.5 q=38.4 size=     512KiB time=00:00:00.96 bitrate=4339.3kbits/s speed=0.0143x elapsed=0:01:07.56    \nframe=   31 fps=0.5 q=38.4 size=     512KiB time=00:00:00.96 bitrate=4339.3kbits/s speed=0.0142x elapsed=0:01:08.12    \nframe=   32 fps=0.5 q=39.6 size=     512KiB time=00:00:00.96 bitrate=4339.3kbits/s speed=0.0141x elapsed=0:01:08.67    \nframe=   33 fps=0.5 q=43.2 size=     512KiB time=00:00:01.03 bitrate=4059.3kbits/s speed=0.0149x elapsed=0:01:09.23    \nframe=   33 fps=0.5 q=43.2 size=     512KiB time=00:00:01.03 bitrate=4059.3kbits/s speed=0.0148x elapsed=0:01:09.77    \nframe=   33 fps=0.5 q=43.2 size=     512KiB time=00:00:01.03 bitrate=4059.3kbits/s speed=0.0147x elapsed=0:01:10.32    \nframe=   33 fps=0.5 q=43.2 size=     512KiB time=00:00:01.03 bitrate=4059.3kbits/s speed=0.0146x elapsed=0:01:10.83    \nframe=   34 fps=0.5 q=43.2 size=     512KiB time=00:00:01.06 bitrate=3932.5kbits/s speed=0.0149x elapsed=0:01:11.36    \nframe=   34 fps=0.5 q=43.2 size=     512KiB time=00:00:01.06 bitrate=3932.5kbits/s speed=0.0148x elapsed=0:01:11.92    \nframe=   34 fps=0.5 q=43.2 size=     512KiB time=00:00:01.06 bitrate=3932.5kbits/s speed=0.0147x elapsed=0:01:12.48    \nframe=   34 fps=0.5 q=43.2 size=     512KiB time=00:00:01.06 bitrate=3932.5kbits/s speed=0.0146x elapsed=0:01:13.03    \nframe=   34 fps=0.5 q=43.2 size=     512KiB time=00:00:01.06 bitrate=3932.5kbits/s speed=0.0145x elapsed=0:01:13.56    \nframe=   34 fps=0.5 q=43.2 size=     512KiB time=00:00:01.06 bitrate=3932.5kbits/s speed=0.0144x elapsed=0:01:14.11    \nframe=   35 fps=0.5 q=43.8 size=     512KiB time=00:00:01.10 bitrate=3813.3kbits/s speed=0.0147x elapsed=0:01:14.66    \nframe=   35 fps=0.5 q=43.8 size=     512KiB time=00:00:01.10 bitrate=3813.3kbits/s speed=0.0146x elapsed=0:01:15.23    \nframe=   35 fps=0.5 q=43.8 size=     512KiB time=00:00:01.10 bitrate=3813.3kbits/s speed=0.0145x elapsed=0:01:15.77    \nframe=   36 fps=0.5 q=38.5 size=     512KiB time=00:00:01.13 bitrate=3701.2kbits/s speed=0.0149x elapsed=0:01:16.28    \nframe=   37 fps=0.5 q=41.3 size=     512KiB time=00:00:01.16 bitrate=3595.4kbits/s speed=0.0152x elapsed=0:01:16.80    \nframe=   37 fps=0.5 q=41.3 size=     512KiB time=00:00:01.16 bitrate=3595.4kbits/s speed=0.0151x elapsed=0:01:17.32    \nframe=   38 fps=0.5 q=43.8 size=     512KiB time=00:00:01.20 bitrate=3495.5kbits/s speed=0.0154x elapsed=0:01:17.83    \nframe=   38 fps=0.5 q=43.8 size=     512KiB time=00:00:01.20 bitrate=3495.5kbits/s speed=0.0153x elapsed=0:01:18.38    \nframe=   39 fps=0.5 q=43.8 size=     512KiB time=00:00:01.23 bitrate=3401.1kbits/s speed=0.0156x elapsed=0:01:18.91    \nframe=   39 fps=0.5 q=43.8 size=     512KiB time=00:00:01.23 bitrate=3401.1kbits/s speed=0.0155x elapsed=0:01:19.42    \nframe=   39 fps=0.5 q=43.8 size=     512KiB time=00:00:01.23 bitrate=3401.1kbits/s speed=0.0154x elapsed=0:01:19.94    \nframe=   40 fps=0.5 q=43.8 size=     512KiB time=00:00:01.26 bitrate=3311.6kbits/s speed=0.0157x elapsed=0:01:20.46    \nframe=   40 fps=0.5 q=43.8 size=     512KiB time=00:00:01.26 bitrate=3311.6kbits/s speed=0.0156x elapsed=0:01:20.97    \nframe=   41 fps=0.5 q=38.6 size=     512KiB time=00:00:01.30 bitrate=3226.7kbits/s speed=0.016x elapsed=0:01:21.49    \nframe=   42 fps=0.5 q=42.2 size=     512KiB time=00:00:01.33 bitrate=3146.0kbits/s speed=0.0163x elapsed=0:01:22.01    \nframe=   42 fps=0.5 q=42.2 size=     512KiB time=00:00:01.33 bitrate=3146.0kbits/s speed=0.0162x elapsed=0:01:22.55    \nframe=   43 fps=0.5 q=43.7 size=     512KiB time=00:00:01.33 bitrate=3146.0kbits/s speed=0.0161x elapsed=0:01:23.05    \nframe=   43 fps=0.5 q=43.7 size=     512KiB time=00:00:01.36 bitrate=3069.3kbits/s speed=0.0164x elapsed=0:01:23.57    \nframe=   44 fps=0.5 q=43.9 size=     512KiB time=00:00:01.40 bitrate=2996.2kbits/s speed=0.0166x elapsed=0:01:24.11    \nframe=   44 fps=0.5 q=43.9 size=     512KiB time=00:00:01.40 bitrate=2996.2kbits/s speed=0.0165x elapsed=0:01:24.64    \nframe=   44 fps=0.5 q=43.9 size=     512KiB time=00:00:01.40 bitrate=2996.2kbits/s speed=0.0164x elapsed=0:01:25.16    \nframe=   44 fps=0.5 q=43.9 size=     512KiB time=00:00:01.40 bitrate=2996.2kbits/s speed=0.0163x elapsed=0:01:25.70    \nframe=   44 fps=0.5 q=43.9 size=     512KiB time=00:00:01.40 bitrate=2996.2kbits/s speed=0.0162x elapsed=0:01:26.22    \nframe=   44 fps=0.5 q=43.9 size=     512KiB time=00:00:01.40 bitrate=2996.2kbits/s speed=0.0161x elapsed=0:01:26.75    \nframe=   45 fps=0.5 q=43.9 size=     512KiB time=00:00:01.43 bitrate=2926.5kbits/s speed=0.0164x elapsed=0:01:27.30    \nframe=   45 fps=0.5 q=43.9 size=     512KiB time=00:00:01.43 bitrate=2926.5kbits/s speed=0.0163x elapsed=0:01:27.82    \nframe=   45 fps=0.5 q=43.9 size=     512KiB time=00:00:01.43 bitrate=2926.5kbits/s speed=0.0162x elapsed=0:01:28.34    \nframe=   46 fps=0.5 q=38.4 size=     768KiB time=00:00:01.46 bitrate=4289.9kbits/s speed=0.0165x elapsed=0:01:28.86    \nframe=   47 fps=0.5 q=42.3 size=     768KiB time=00:00:01.50 bitrate=4194.5kbits/s speed=0.0168x elapsed=0:01:29.38    \nframe=   47 fps=0.5 q=42.3 size=     768KiB time=00:00:01.50 bitrate=4194.5kbits/s speed=0.0167x elapsed=0:01:29.90    \nframe=   48 fps=0.5 q=43.7 size=     768KiB time=00:00:01.53 bitrate=4103.4kbits/s speed=0.017x elapsed=0:01:30.44    \nframe=   48 fps=0.5 q=43.7 size=     768KiB time=00:00:01.53 bitrate=4103.4kbits/s speed=0.0169x elapsed=0:01:30.96    \nframe=   49 fps=0.5 q=43.8 size=     768KiB time=00:00:01.56 bitrate=4016.0kbits/s speed=0.0171x elapsed=0:01:31.49    \nframe=   49 fps=0.5 q=43.8 size=     768KiB time=00:00:01.56 bitrate=4016.0kbits/s speed=0.017x elapsed=0:01:32.01    \nframe=   50 fps=0.5 q=43.9 size=     768KiB time=00:00:01.60 bitrate=3932.4kbits/s speed=0.0173x elapsed=0:01:32.54    \nframe=   51 fps=0.5 q=38.4 size=     768KiB time=00:00:01.63 bitrate=3852.1kbits/s speed=0.0176x elapsed=0:01:33.05    \nframe=   52 fps=0.6 q=42.2 size=     768KiB time=00:00:01.66 bitrate=3775.1kbits/s speed=0.0178x elapsed=0:01:33.57    \nframe=   52 fps=0.6 q=42.2 size=     768KiB time=00:00:01.66 bitrate=3775.1kbits/s speed=0.0177x elapsed=0:01:34.09    \nframe=   52 fps=0.5 q=42.2 size=     768KiB time=00:00:01.66 bitrate=3775.1kbits/s speed=0.0176x elapsed=0:01:34.61    \nframe=   52 fps=0.5 q=42.2 size=     768KiB time=00:00:01.66 bitrate=3775.1kbits/s speed=0.0175x elapsed=0:01:35.12    \nframe=   52 fps=0.5 q=42.2 size=     768KiB time=00:00:01.66 bitrate=3775.1kbits/s speed=0.0174x elapsed=0:01:35.66    \nframe=   53 fps=0.6 q=43.9 size=     768KiB time=00:00:01.70 bitrate=3701.1kbits/s speed=0.0177x elapsed=0:01:36.18    \nframe=   53 fps=0.5 q=43.9 size=     768KiB time=00:00:01.70 bitrate=3701.1kbits/s speed=0.0176x elapsed=0:01:36.73    \nframe=   53 fps=0.5 q=43.9 size=     768KiB time=00:00:01.70 bitrate=3701.1kbits/s speed=0.0175x elapsed=0:01:37.28    \nframe=   53 fps=0.5 q=43.9 size=     768KiB time=00:00:01.70 bitrate=3701.1kbits/s speed=0.0174x elapsed=0:01:37.79    \nframe=   53 fps=0.5 q=43.9 size=     768KiB time=00:00:01.70 bitrate=3701.1kbits/s speed=0.0173x elapsed=0:01:38.32    \nframe=   54 fps=0.5 q=43.8 size=     768KiB time=00:00:01.73 bitrate=3629.9kbits/s speed=0.0175x elapsed=0:01:38.84    \nframe=   54 fps=0.5 q=43.8 size=     768KiB time=00:00:01.73 bitrate=3629.9kbits/s speed=0.0174x elapsed=0:01:39.38    \nframe=   54 fps=0.5 q=43.8 size=     768KiB time=00:00:01.73 bitrate=3629.9kbits/s speed=0.0173x elapsed=0:01:39.91    \nframe=   54 fps=0.5 q=43.8 size=     768KiB time=00:00:01.73 bitrate=3629.9kbits/s speed=0.0173x elapsed=0:01:40.44    \nframe=   54 fps=0.5 q=43.8 size=     768KiB time=00:00:01.73 bitrate=3629.9kbits/s speed=0.0172x elapsed=0:01:40.96    \nframe=   55 fps=0.5 q=43.8 size=     768KiB time=00:00:01.76 bitrate=3561.4kbits/s speed=0.0174x elapsed=0:01:41.52    \nframe=   55 fps=0.5 q=43.8 size=     768KiB time=00:00:01.76 bitrate=3561.4kbits/s speed=0.0173x elapsed=0:01:42.04    \nframe=   55 fps=0.5 q=43.8 size=     768KiB time=00:00:01.76 bitrate=3561.4kbits/s speed=0.0172x elapsed=0:01:42.61    \nframe=   55 fps=0.5 q=43.8 size=     768KiB time=00:00:01.76 bitrate=3561.4kbits/s speed=0.0171x elapsed=0:01:43.24    \nframe=   55 fps=0.5 q=43.8 size=     768KiB time=00:00:01.76 bitrate=3561.4kbits/s speed=0.017x elapsed=0:01:43.81    \nframe=   55 fps=0.5 q=43.8 size=     768KiB time=00:00:01.76 bitrate=3561.4kbits/s speed=0.0169x elapsed=0:01:44.37    \nframe=   55 fps=0.5 q=43.8 size=     768KiB time=00:00:01.76 bitrate=3561.4kbits/s speed=0.0168x elapsed=0:01:44.95    \nframe=   55 fps=0.5 q=43.8 size=     768KiB time=00:00:01.76 bitrate=3561.4kbits/s speed=0.0167x elapsed=0:01:45.58    \nframe=   55 fps=0.5 q=43.8 size=     768KiB time=00:00:01.76 bitrate=3561.4kbits/s speed=0.0166x elapsed=0:01:46.22    \nframe=   56 fps=0.5 q=38.5 size=     768KiB time=00:00:01.80 bitrate=3495.4kbits/s speed=0.0168x elapsed=0:01:46.83    \nframe=   56 fps=0.5 q=38.5 size=     768KiB time=00:00:01.80 bitrate=3495.4kbits/s speed=0.0167x elapsed=0:01:47.52    \nframe=   57 fps=0.5 q=42.1 size=     768KiB time=00:00:01.83 bitrate=3431.9kbits/s speed=0.017x elapsed=0:01:48.08    \nframe=   57 fps=0.5 q=42.1 size=     768KiB time=00:00:01.83 bitrate=3431.9kbits/s speed=0.0169x elapsed=0:01:48.62    \nframe=   57 fps=0.5 q=42.1 size=     768KiB time=00:00:01.83 bitrate=3431.9kbits/s speed=0.0168x elapsed=0:01:49.32    \nframe=   57 fps=0.5 q=42.1 size=     768KiB time=00:00:01.83 bitrate=3431.9kbits/s speed=0.0167x elapsed=0:01:50.02    \nframe=   57 fps=0.5 q=42.1 size=     768KiB time=00:00:01.83 bitrate=3431.9kbits/s speed=0.0166x elapsed=0:01:50.57    \nframe=   57 fps=0.5 q=42.1 size=     768KiB time=00:00:01.83 bitrate=3431.9kbits/s speed=0.0165x elapsed=0:01:51.17    \nframe=   57 fps=0.5 q=42.1 size=     768KiB time=00:00:01.83 bitrate=3431.9kbits/s speed=0.0164x elapsed=0:01:51.88    \nframe=   57 fps=0.5 q=42.1 size=     768KiB time=00:00:01.83 bitrate=3431.9kbits/s speed=0.0163x elapsed=0:01:52.55    \nframe=   57 fps=0.5 q=42.1 size=     768KiB time=00:00:01.83 bitrate=3431.9kbits/s speed=0.0162x elapsed=0:01:53.15    \nframe=   57 fps=0.5 q=42.1 size=     768KiB time=00:00:01.83 bitrate=3431.9kbits/s speed=0.0161x elapsed=0:01:53.91    \nframe=   57 fps=0.5 q=42.1 size=     768KiB time=00:00:01.83 bitrate=3431.9kbits/s speed=0.016x elapsed=0:01:54.65    \nframe=   57 fps=0.5 q=42.1 size=     768KiB time=00:00:01.83 bitrate=3431.9kbits/s speed=0.0159x elapsed=0:01:55.37    \nframe=   57 fps=0.5 q=42.1 size=     768KiB time=00:00:01.83 bitrate=3431.9kbits/s speed=0.0158x elapsed=0:01:56.09    \nframe=   57 fps=0.5 q=42.1 size=     768KiB time=00:00:01.83 bitrate=3431.9kbits/s speed=0.0157x elapsed=0:01:56.81    \nframe=   58 fps=0.5 q=43.8 size=     768KiB time=00:00:01.86 bitrate=3370.6kbits/s speed=0.0159x elapsed=0:01:57.36    \nframe=   58 fps=0.5 q=43.8 size=     768KiB time=00:00:01.86 bitrate=3370.6kbits/s speed=0.0158x elapsed=0:01:58.02    \nframe=   58 fps=0.5 q=43.8 size=     768KiB time=00:00:01.86 bitrate=3370.6kbits/s speed=0.0157x elapsed=0:01:58.76    \nframe=   58 fps=0.5 q=43.8 size=     768KiB time=00:00:01.86 bitrate=3370.6kbits/s speed=0.0156x elapsed=0:01:59.50    \nframe=   58 fps=0.5 q=43.8 size=     768KiB time=00:00:01.86 bitrate=3370.6kbits/s speed=0.0155x elapsed=0:02:00.14    \nframe=   58 fps=0.5 q=43.8 size=     768KiB time=00:00:01.86 bitrate=3370.6kbits/s speed=0.0155x elapsed=0:02:00.72    \nframe=   58 fps=0.5 q=43.8 size=     768KiB time=00:00:01.86 bitrate=3370.6kbits/s speed=0.0154x elapsed=0:02:01.42    \nframe=   58 fps=0.5 q=43.8 size=     768KiB time=00:00:01.86 bitrate=3370.6kbits/s speed=0.0153x elapsed=0:02:02.05    \nframe=   58 fps=0.5 q=43.8 size=     768KiB time=00:00:01.86 bitrate=3370.6kbits/s speed=0.0152x elapsed=0:02:02.71    \nframe=   58 fps=0.5 q=43.8 size=     768KiB time=00:00:01.86 bitrate=3370.6kbits/s speed=0.0151x elapsed=0:02:03.27    \nframe=   58 fps=0.5 q=43.8 size=     768KiB time=00:00:01.86 bitrate=3370.6kbits/s speed=0.0151x elapsed=0:02:03.97    \nframe=   58 fps=0.5 q=43.8 size=     768KiB time=00:00:01.86 bitrate=3370.6kbits/s speed=0.015x elapsed=0:02:04.68    \nframe=   58 fps=0.5 q=43.8 size=     768KiB time=00:00:01.86 bitrate=3370.6kbits/s speed=0.0149x elapsed=0:02:05.43    \nframe=   58 fps=0.5 q=43.8 size=     768KiB time=00:00:01.86 bitrate=3370.6kbits/s speed=0.0148x elapsed=0:02:06.10    \nframe=   58 fps=0.5 q=43.8 size=     768KiB time=00:00:01.86 bitrate=3370.6kbits/s speed=0.0147x elapsed=0:02:06.66    \nframe=   58 fps=0.5 q=43.8 size=     768KiB time=00:00:01.86 bitrate=3370.6kbits/s speed=0.0147x elapsed=0:02:07.29    \nframe=   58 fps=0.5 q=43.8 size=     768KiB time=00:00:01.86 bitrate=3370.6kbits/s speed=0.0146x elapsed=0:02:07.97    \nframe=   58 fps=0.5 q=43.8 size=     768KiB time=00:00:01.86 bitrate=3370.6kbits/s speed=0.0145x elapsed=0:02:08.65    \nframe=   58 fps=0.4 q=43.8 size=     768KiB time=00:00:01.86 bitrate=3370.6kbits/s speed=0.0144x elapsed=0:02:09.27    \nframe=   60 fps=0.5 q=43.9 size=     768KiB time=00:00:01.93 bitrate=3254.4kbits/s speed=0.0149x elapsed=0:02:09.83    \nframe=   60 fps=0.5 q=43.9 size=     768KiB time=00:00:01.93 bitrate=3254.4kbits/s speed=0.0148x elapsed=0:02:10.45    \nframe=   60 fps=0.5 q=43.9 size=     768KiB time=00:00:01.93 bitrate=3254.4kbits/s speed=0.0147x elapsed=0:02:11.12    \nframe=   60 fps=0.5 q=43.9 size=     768KiB time=00:00:01.93 bitrate=3254.4kbits/s speed=0.0147x elapsed=0:02:11.83    \nframe=   60 fps=0.5 q=43.9 size=     768KiB time=00:00:01.93 bitrate=3254.4kbits/s speed=0.0146x elapsed=0:02:12.51    \nframe=   60 fps=0.5 q=43.9 size=     768KiB time=00:00:01.93 bitrate=3254.4kbits/s speed=0.0145x elapsed=0:02:13.21    \nframe=   60 fps=0.4 q=43.9 size=     768KiB time=00:00:01.93 bitrate=3254.4kbits/s speed=0.0145x elapsed=0:02:13.75    \nframe=   60 fps=0.4 q=43.9 size=     768KiB time=00:00:01.93 bitrate=3254.4kbits/s speed=0.0144x elapsed=0:02:14.29    \nframe=   60 fps=0.4 q=43.9 size=     768KiB time=00:00:01.93 bitrate=3254.4kbits/s speed=0.0143x elapsed=0:02:14.81    \nframe=   60 fps=0.4 q=43.9 size=     768KiB time=00:00:01.93 bitrate=3254.4kbits/s speed=0.0143x elapsed=0:02:15.34    \nframe=   60 fps=0.4 q=43.9 size=     768KiB time=00:00:01.93 bitrate=3254.4kbits/s speed=0.0142x elapsed=0:02:15.85    \nframe=   60 fps=0.4 q=43.9 size=     768KiB time=00:00:01.93 bitrate=3254.4kbits/s speed=0.0142x elapsed=0:02:16.37    \nframe=   61 fps=0.4 q=38.6 size=     768KiB time=00:00:01.96 bitrate=3199.2kbits/s speed=0.0144x elapsed=0:02:16.94    \nframe=   61 fps=0.4 q=38.6 size=     768KiB time=00:00:01.96 bitrate=3199.2kbits/s speed=0.0143x elapsed=0:02:17.45    \nframe=   61 fps=0.4 q=38.6 size=     768KiB time=00:00:01.96 bitrate=3199.2kbits/s speed=0.0143x elapsed=0:02:17.96    \nframe=   61 fps=0.4 q=38.6 size=     768KiB time=00:00:01.96 bitrate=3199.2kbits/s speed=0.0142x elapsed=0:02:18.49    \nframe=   62 fps=0.4 q=42.1 size=    1024KiB time=00:00:02.00 bitrate=4194.5kbits/s speed=0.0144x elapsed=0:02:19.01    \nframe=   62 fps=0.4 q=42.1 size=    1024KiB time=00:00:02.00 bitrate=4194.5kbits/s speed=0.0143x elapsed=0:02:19.55    \nframe=   63 fps=0.4 q=43.9 size=    1024KiB time=00:00:02.03 bitrate=4125.7kbits/s speed=0.0145x elapsed=0:02:20.07    \nframe=   64 fps=0.5 q=43.8 size=    1024KiB time=00:00:02.06 bitrate=4059.2kbits/s speed=0.0147x elapsed=0:02:20.59    \nframe=   65 fps=0.5 q=43.8 size=    1024KiB time=00:00:02.10 bitrate=3994.7kbits/s speed=0.0149x elapsed=0:02:21.13    \nframe=   65 fps=0.5 q=43.8 size=    1024KiB time=00:00:02.10 bitrate=3994.7kbits/s speed=0.0148x elapsed=0:02:21.65    \nframe=   66 fps=0.5 q=38.5 size=    1024KiB time=00:00:02.13 bitrate=3932.3kbits/s speed=0.015x elapsed=0:02:22.16    \nframe=   66 fps=0.5 q=38.5 size=    1024KiB time=00:00:02.13 bitrate=3932.3kbits/s speed=0.0149x elapsed=0:02:22.70    \nframe=   66 fps=0.5 q=38.5 size=    1024KiB time=00:00:02.13 bitrate=3932.3kbits/s speed=0.0149x elapsed=0:02:23.21    \nframe=   66 fps=0.5 q=38.5 size=    1024KiB time=00:00:02.13 bitrate=3932.3kbits/s speed=0.0148x elapsed=0:02:23.73    \nframe=   66 fps=0.5 q=38.5 size=    1024KiB time=00:00:02.13 bitrate=3932.3kbits/s speed=0.0148x elapsed=0:02:24.27    \nframe=   67 fps=0.5 q=42.2 size=    1024KiB time=00:00:02.16 bitrate=3871.8kbits/s speed=0.015x elapsed=0:02:24.82    \nframe=   67 fps=0.5 q=42.2 size=    1024KiB time=00:00:02.16 bitrate=3871.8kbits/s speed=0.0149x elapsed=0:02:25.35    \nframe=   68 fps=0.5 q=43.8 size=    1024KiB time=00:00:02.20 bitrate=3813.2kbits/s speed=0.0151x elapsed=0:02:25.89    \nframe=   68 fps=0.5 q=43.8 size=    1024KiB time=00:00:02.20 bitrate=3813.2kbits/s speed=0.015x elapsed=0:02:26.43    \nframe=   70 fps=0.5 q=43.9 size=    1024KiB time=00:00:02.26 bitrate=3701.0kbits/s speed=0.0154x elapsed=0:02:26.96    \nframe=   71 fps=0.5 q=38.5 size=    1024KiB time=00:00:02.30 bitrate=3647.4kbits/s speed=0.0156x elapsed=0:02:27.48    \nframe=   71 fps=0.5 q=38.5 size=    1024KiB time=00:00:02.30 bitrate=3647.4kbits/s speed=0.0155x elapsed=0:02:28.00    \nframe=   71 fps=0.5 q=38.5 size=    1024KiB time=00:00:02.30 bitrate=3647.4kbits/s speed=0.0155x elapsed=0:02:28.51    \nframe=   71 fps=0.5 q=38.5 size=    1024KiB time=00:00:02.30 bitrate=3647.4kbits/s speed=0.0154x elapsed=0:02:29.04    \nframe=   72 fps=0.5 q=42.0 size=    1024KiB time=00:00:02.33 bitrate=3595.3kbits/s speed=0.0156x elapsed=0:02:29.59    \nframe=   72 fps=0.5 q=42.0 size=    1024KiB time=00:00:02.33 bitrate=3595.3kbits/s speed=0.0155x elapsed=0:02:30.11    \nframe=   73 fps=0.5 q=43.9 size=    1024KiB time=00:00:02.36 bitrate=3544.6kbits/s speed=0.0157x elapsed=0:02:30.64    \nframe=   73 fps=0.5 q=43.9 size=    1024KiB time=00:00:02.36 bitrate=3544.6kbits/s speed=0.0157x elapsed=0:02:31.17    \nframe=   75 fps=0.5 q=38.6 size=    1024KiB time=00:00:02.43 bitrate=3447.5kbits/s speed=0.016x elapsed=0:02:31.67    \nframe=   76 fps=0.5 q=41.9 size=    1024KiB time=00:00:02.46 bitrate=3400.9kbits/s speed=0.0162x elapsed=0:02:32.19    \nframe=   76 fps=0.5 q=41.9 size=    1024KiB time=00:00:02.46 bitrate=3400.9kbits/s speed=0.0161x elapsed=0:02:32.73    \nframe=   77 fps=0.5 q=43.8 size=    1024KiB time=00:00:02.50 bitrate=3355.6kbits/s speed=0.0163x elapsed=0:02:33.26    \nframe=   77 fps=0.5 q=43.8 size=    1024KiB time=00:00:02.50 bitrate=3355.6kbits/s speed=0.0163x elapsed=0:02:33.78    \nframe=   77 fps=0.5 q=43.8 size=    1024KiB time=00:00:02.50 bitrate=3355.6kbits/s speed=0.0162x elapsed=0:02:34.35    \nframe=   77 fps=0.5 q=43.8 size=    1024KiB time=00:00:02.50 bitrate=3355.6kbits/s speed=0.0161x elapsed=0:02:34.87    \nframe=   78 fps=0.5 q=43.9 size=    1280KiB time=00:00:02.53 bitrate=4139.3kbits/s speed=0.0163x elapsed=0:02:35.42    \nframe=   79 fps=0.5 q=43.9 size=    1280KiB time=00:00:02.56 bitrate=4085.5kbits/s speed=0.0165x elapsed=0:02:35.94    \nframe=   79 fps=0.5 q=43.9 size=    1280KiB time=00:00:02.56 bitrate=4085.5kbits/s speed=0.0164x elapsed=0:02:36.46    \nframe=   79 fps=0.5 q=43.9 size=    1280KiB time=00:00:02.56 bitrate=4085.5kbits/s speed=0.0163x elapsed=0:02:36.98    \nframe=   80 fps=0.5 q=38.5 size=    1280KiB time=00:00:02.60 bitrate=4033.1kbits/s speed=0.0165x elapsed=0:02:37.49    \nframe=   80 fps=0.5 q=38.5 size=    1280KiB time=00:00:02.60 bitrate=4033.1kbits/s speed=0.0165x elapsed=0:02:38.02    \nframe=   80 fps=0.5 q=38.5 size=    1280KiB time=00:00:02.60 bitrate=4033.1kbits/s speed=0.0164x elapsed=0:02:38.59    \nframe=   81 fps=0.5 q=40.2 size=    1280KiB time=00:00:02.63 bitrate=3982.1kbits/s speed=0.0165x elapsed=0:02:39.13    \nframe=   81 fps=0.5 q=40.2 size=    1280KiB time=00:00:02.63 bitrate=3982.1kbits/s speed=0.0165x elapsed=0:02:39.66    \nframe=   81 fps=0.5 q=40.2 size=    1280KiB time=00:00:02.63 bitrate=3982.1kbits/s speed=0.0164x elapsed=0:02:40.19    \nframe=   81 fps=0.5 q=40.2 size=    1280KiB time=00:00:02.63 bitrate=3982.1kbits/s speed=0.0164x elapsed=0:02:40.73    \nframe=   81 fps=0.5 q=40.2 size=    1280KiB time=00:00:02.63 bitrate=3982.1kbits/s speed=0.0163x elapsed=0:02:41.31    \nframe=   81 fps=0.5 q=40.2 size=    1280KiB time=00:00:02.63 bitrate=3982.1kbits/s speed=0.0163x elapsed=0:02:41.84    \nframe=   81 fps=0.5 q=40.2 size=    1280KiB time=00:00:02.63 bitrate=3982.1kbits/s speed=0.0162x elapsed=0:02:42.41    \nframe=   81 fps=0.5 q=40.2 size=    1280KiB time=00:00:02.63 bitrate=3982.1kbits/s speed=0.0162x elapsed=0:02:42.99    \nframe=   81 fps=0.5 q=40.2 size=    1280KiB time=00:00:02.63 bitrate=3982.1kbits/s speed=0.0161x elapsed=0:02:43.52    \nframe=   82 fps=0.5 q=43.9 size=    1280KiB time=00:00:02.66 bitrate=3932.3kbits/s speed=0.0162x elapsed=0:02:44.13    \nframe=   82 fps=0.5 q=43.9 size=    1280KiB time=00:00:02.66 bitrate=3932.3kbits/s speed=0.0162x elapsed=0:02:44.69    \nframe=   83 fps=0.5 q=43.9 size=    1280KiB time=00:00:02.70 bitrate=3883.7kbits/s speed=0.0163x elapsed=0:02:45.21    \nframe=   84 fps=0.5 q=43.9 size=    1280KiB time=00:00:02.73 bitrate=3836.4kbits/s speed=0.0165x elapsed=0:02:45.78    \nframe=   84 fps=0.5 q=43.9 size=    1280KiB time=00:00:02.73 bitrate=3836.4kbits/s speed=0.0164x elapsed=0:02:46.46    \nframe=   84 fps=0.5 q=43.9 size=    1280KiB time=00:00:02.73 bitrate=3836.4kbits/s speed=0.0164x elapsed=0:02:47.00    \nframe=   84 fps=0.5 q=43.9 size=    1280KiB time=00:00:02.73 bitrate=3836.4kbits/s speed=0.0163x elapsed=0:02:47.54    \nframe=   84 fps=0.5 q=43.9 size=    1280KiB time=00:00:02.73 bitrate=3836.4kbits/s speed=0.0163x elapsed=0:02:48.09    \nframe=   84 fps=0.5 q=43.9 size=    1280KiB time=00:00:02.73 bitrate=3836.4kbits/s speed=0.0162x elapsed=0:02:48.76    \nframe=   84 fps=0.5 q=43.9 size=    1280KiB time=00:00:02.73 bitrate=3836.4kbits/s speed=0.0161x elapsed=0:02:49.29    \nframe=   84 fps=0.5 q=43.9 size=    1280KiB time=00:00:02.73 bitrate=3836.4kbits/s speed=0.0161x elapsed=0:02:49.82    \nframe=   84 fps=0.5 q=43.9 size=    1280KiB time=00:00:02.73 bitrate=3836.4kbits/s speed=0.016x elapsed=0:02:50.39    \nframe=   84 fps=0.5 q=43.9 size=    1280KiB time=00:00:02.73 bitrate=3836.4kbits/s speed=0.016x elapsed=0:02:51.14    \nframe=   84 fps=0.5 q=43.9 size=    1280KiB time=00:00:02.73 bitrate=3836.4kbits/s speed=0.0159x elapsed=0:02:51.84    \nframe=   84 fps=0.5 q=43.9 size=    1280KiB time=00:00:02.73 bitrate=3836.4kbits/s speed=0.0159x elapsed=0:02:52.43    \nframe=   84 fps=0.5 q=43.9 size=    1280KiB time=00:00:02.73 bitrate=3836.4kbits/s speed=0.0158x elapsed=0:02:53.02    \nframe=   84 fps=0.5 q=43.9 size=    1280KiB time=00:00:02.73 bitrate=3836.4kbits/s speed=0.0157x elapsed=0:02:53.71    \nframe=   84 fps=0.5 q=43.9 size=    1280KiB time=00:00:02.73 bitrate=3836.4kbits/s speed=0.0157x elapsed=0:02:54.36    \nframe=   84 fps=0.5 q=43.9 size=    1280KiB time=00:00:02.73 bitrate=3836.4kbits/s speed=0.0156x elapsed=0:02:55.01    \nframe=   84 fps=0.5 q=43.9 size=    1280KiB time=00:00:02.73 bitrate=3836.4kbits/s speed=0.0156x elapsed=0:02:55.59    \nframe=   84 fps=0.5 q=43.9 size=    1280KiB time=00:00:02.73 bitrate=3836.4kbits/s speed=0.0155x elapsed=0:02:56.33    \nframe=   84 fps=0.5 q=43.9 size=    1280KiB time=00:00:02.73 bitrate=3836.4kbits/s speed=0.0154x elapsed=0:02:57.05    \nframe=   84 fps=0.5 q=43.9 size=    1280KiB time=00:00:02.73 bitrate=3836.4kbits/s speed=0.0154x elapsed=0:02:57.70    \nframe=   84 fps=0.5 q=43.9 size=    1280KiB time=00:00:02.73 bitrate=3836.4kbits/s speed=0.0153x elapsed=0:02:58.21    \nframe=   84 fps=0.5 q=43.9 size=    1280KiB time=00:00:02.73 bitrate=3836.4kbits/s speed=0.0153x elapsed=0:02:58.76    \nframe=   84 fps=0.5 q=43.9 size=    1280KiB time=00:00:02.73 bitrate=3836.4kbits/s speed=0.0152x elapsed=0:02:59.44    \nframe=   84 fps=0.5 q=43.9 size=    1280KiB time=00:00:02.73 bitrate=3836.4kbits/s speed=0.0152x elapsed=0:03:00.08    \nframe=   84 fps=0.5 q=43.9 size=    1280KiB time=00:00:02.73 bitrate=3836.4kbits/s speed=0.0151x elapsed=0:03:00.72    \nframe=   84 fps=0.5 q=43.9 size=    1280KiB time=00:00:02.73 bitrate=3836.4kbits/s speed=0.0151x elapsed=0:03:01.28    \nframe=   84 fps=0.5 q=43.9 size=    1280KiB time=00:00:02.73 bitrate=3836.4kbits/s speed=0.015x elapsed=0:03:01.98    \nframe=   84 fps=0.5 q=43.9 size=    1280KiB time=00:00:02.73 bitrate=3836.4kbits/s speed=0.015x elapsed=0:03:02.69    \nframe=   84 fps=0.5 q=43.9 size=    1280KiB time=00:00:02.73 bitrate=3836.4kbits/s speed=0.0149x elapsed=0:03:03.39    \nframe=   84 fps=0.5 q=43.9 size=    1280KiB time=00:00:02.73 bitrate=3836.4kbits/s speed=0.0148x elapsed=0:03:04.13    \nframe=   85 fps=0.5 q=38.7 size=    1280KiB time=00:00:02.76 bitrate=3790.2kbits/s speed=0.015x elapsed=0:03:04.71    \nframe=   85 fps=0.5 q=38.7 size=    1280KiB time=00:00:02.76 bitrate=3790.2kbits/s speed=0.0149x elapsed=0:03:05.36    \nframe=   85 fps=0.5 q=38.7 size=    1280KiB time=00:00:02.76 bitrate=3790.2kbits/s speed=0.0149x elapsed=0:03:06.11    \nframe=   85 fps=0.5 q=38.7 size=    1280KiB time=00:00:02.76 bitrate=3790.2kbits/s speed=0.0148x elapsed=0:03:06.83    \nframe=   85 fps=0.5 q=38.7 size=    1280KiB time=00:00:02.76 bitrate=3790.2kbits/s speed=0.0148x elapsed=0:03:07.52    \nframe=   85 fps=0.5 q=38.7 size=    1280KiB time=00:00:02.76 bitrate=3790.2kbits/s speed=0.0147x elapsed=0:03:08.10    \nframe=   85 fps=0.5 q=38.7 size=    1280KiB time=00:00:02.76 bitrate=3790.2kbits/s speed=0.0147x elapsed=0:03:08.65    \nframe=   85 fps=0.4 q=38.7 size=    1280KiB time=00:00:02.76 bitrate=3790.2kbits/s speed=0.0146x elapsed=0:03:09.22    \nframe=   85 fps=0.4 q=38.7 size=    1280KiB time=00:00:02.76 bitrate=3790.2kbits/s speed=0.0146x elapsed=0:03:09.93    \nframe=   85 fps=0.4 q=38.7 size=    1280KiB time=00:00:02.76 bitrate=3790.2kbits/s speed=0.0145x elapsed=0:03:10.67    \nframe=   85 fps=0.4 q=38.7 size=    1280KiB time=00:00:02.76 bitrate=3790.2kbits/s speed=0.0145x elapsed=0:03:11.31    \nframe=   85 fps=0.4 q=38.7 size=    1280KiB time=00:00:02.76 bitrate=3790.2kbits/s speed=0.0144x elapsed=0:03:11.90    \nframe=   85 fps=0.4 q=38.7 size=    1280KiB time=00:00:02.76 bitrate=3790.2kbits/s speed=0.0144x elapsed=0:03:12.50    \nframe=   85 fps=0.4 q=38.7 size=    1280KiB time=00:00:02.76 bitrate=3790.2kbits/s speed=0.0143x elapsed=0:03:13.19    \nframe=   85 fps=0.4 q=38.7 size=    1280KiB time=00:00:02.76 bitrate=3790.2kbits/s speed=0.0143x elapsed=0:03:13.87    \nframe=   85 fps=0.4 q=38.7 size=    1280KiB time=00:00:02.76 bitrate=3790.2kbits/s speed=0.0142x elapsed=0:03:14.60    \nframe=   85 fps=0.4 q=38.7 size=    1280KiB time=00:00:02.76 bitrate=3790.2kbits/s speed=0.0142x elapsed=0:03:15.29    \nframe=   85 fps=0.4 q=38.7 size=    1280KiB time=00:00:02.76 bitrate=3790.2kbits/s speed=0.0141x elapsed=0:03:15.85    \nframe=   86 fps=0.4 q=41.5 size=    1280KiB time=00:00:02.80 bitrate=3745.0kbits/s speed=0.0143x elapsed=0:03:16.41    \nframe=   86 fps=0.4 q=41.5 size=    1280KiB time=00:00:02.80 bitrate=3745.0kbits/s speed=0.0142x elapsed=0:03:16.93    \nframe=   86 fps=0.4 q=41.5 size=    1280KiB time=00:00:02.80 bitrate=3745.0kbits/s speed=0.0142x elapsed=0:03:17.45    \nframe=   86 fps=0.4 q=41.5 size=    1280KiB time=00:00:02.80 bitrate=3745.0kbits/s speed=0.0141x elapsed=0:03:17.96    \nframe=   86 fps=0.4 q=41.5 size=    1280KiB time=00:00:02.80 bitrate=3745.0kbits/s speed=0.0141x elapsed=0:03:18.50    \nframe=   88 fps=0.4 q=43.9 size=    1280KiB time=00:00:02.86 bitrate=3657.9kbits/s speed=0.0144x elapsed=0:03:19.02    \nframe=   88 fps=0.4 q=43.9 size=    1280KiB time=00:00:02.86 bitrate=3657.9kbits/s speed=0.0144x elapsed=0:03:19.56    \nframe=   89 fps=0.4 q=38.4 size=    1280KiB time=00:00:02.90 bitrate=3615.9kbits/s speed=0.0145x elapsed=0:03:20.11    \nframe=   89 fps=0.4 q=38.4 size=    1280KiB time=00:00:02.90 bitrate=3615.9kbits/s speed=0.0145x elapsed=0:03:20.66    \nframe=   90 fps=0.4 q=41.7 size=    1280KiB time=00:00:02.93 bitrate=3574.8kbits/s speed=0.0146x elapsed=0:03:21.19    \nframe=   90 fps=0.4 q=41.7 size=    1280KiB time=00:00:02.93 bitrate=3574.8kbits/s speed=0.0145x elapsed=0:03:21.69    \nframe=   90 fps=0.4 q=41.7 size=    1280KiB time=00:00:02.93 bitrate=3574.8kbits/s speed=0.0145x elapsed=0:03:22.21    \nframe=   91 fps=0.4 q=43.9 size=    1280KiB time=00:00:02.96 bitrate=3534.6kbits/s speed=0.0146x elapsed=0:03:22.73    \nframe=   93 fps=0.5 q=43.9 size=    1280KiB time=00:00:03.03 bitrate=3457.0kbits/s speed=0.0149x elapsed=0:03:23.26    \nframe=   93 fps=0.5 q=43.9 size=    1280KiB time=00:00:03.03 bitrate=3457.0kbits/s speed=0.0149x elapsed=0:03:23.77    \nframe=   93 fps=0.5 q=43.9 size=    1280KiB time=00:00:03.03 bitrate=3457.0kbits/s speed=0.0148x elapsed=0:03:24.29    \nframe=   93 fps=0.5 q=43.9 size=    1280KiB time=00:00:03.03 bitrate=3457.0kbits/s speed=0.0148x elapsed=0:03:24.83    \nframe=   94 fps=0.5 q=38.3 size=    1280KiB time=00:00:03.06 bitrate=3419.4kbits/s speed=0.0149x elapsed=0:03:25.36    \nframe=   94 fps=0.5 q=38.3 size=    1280KiB time=00:00:03.06 bitrate=3419.4kbits/s speed=0.0149x elapsed=0:03:25.86    \nframe=   94 fps=0.5 q=38.3 size=    1280KiB time=00:00:03.06 bitrate=3419.4kbits/s speed=0.0149x elapsed=0:03:26.39    \nframe=   94 fps=0.5 q=38.3 size=    1280KiB time=00:00:03.06 bitrate=3419.4kbits/s speed=0.0148x elapsed=0:03:26.93    \nframe=   94 fps=0.5 q=38.3 size=    1280KiB time=00:00:03.06 bitrate=3419.4kbits/s speed=0.0148x elapsed=0:03:27.54    \nframe=   94 fps=0.5 q=38.3 size=    1280KiB time=00:00:03.06 bitrate=3419.4kbits/s speed=0.0147x elapsed=0:03:28.12    \nframe=   94 fps=0.5 q=38.3 size=    1280KiB time=00:00:03.06 bitrate=3419.4kbits/s speed=0.0147x elapsed=0:03:28.67    \nframe=   95 fps=0.5 q=41.4 size=    1536KiB time=00:00:03.10 bitrate=4059.1kbits/s speed=0.0148x elapsed=0:03:29.18    \nframe=   95 fps=0.5 q=41.4 size=    1536KiB time=00:00:03.10 bitrate=4059.1kbits/s speed=0.0148x elapsed=0:03:29.70    \nframe=   96 fps=0.5 q=43.8 size=    1536KiB time=00:00:03.13 bitrate=4015.9kbits/s speed=0.0149x elapsed=0:03:30.21    \nframe=   97 fps=0.5 q=43.8 size=    1536KiB time=00:00:03.16 bitrate=3973.7kbits/s speed=0.015x elapsed=0:03:30.73    \nframe=   97 fps=0.5 q=43.8 size=    1536KiB time=00:00:03.16 bitrate=3973.7kbits/s speed=0.015x elapsed=0:03:31.27    \nframe=   97 fps=0.5 q=43.8 size=    1536KiB time=00:00:03.16 bitrate=3973.7kbits/s speed=0.0149x elapsed=0:03:31.82    \nframe=   97 fps=0.5 q=43.8 size=    1536KiB time=00:00:03.16 bitrate=3973.7kbits/s speed=0.0149x elapsed=0:03:32.37    \nframe=   99 fps=0.5 q=38.4 size=    1536KiB time=00:00:03.23 bitrate=3891.7kbits/s speed=0.0152x elapsed=0:03:32.92    \nframe=   99 fps=0.5 q=38.4 size=    1536KiB time=00:00:03.23 bitrate=3891.7kbits/s speed=0.0151x elapsed=0:03:33.44    \nframe=   99 fps=0.5 q=38.4 size=    1536KiB time=00:00:03.23 bitrate=3891.7kbits/s speed=0.0151x elapsed=0:03:34.00    \nframe=   99 fps=0.5 q=38.4 size=    1536KiB time=00:00:03.23 bitrate=3891.7kbits/s speed=0.0151x elapsed=0:03:34.52    \nframe=   99 fps=0.5 q=38.4 size=    1536KiB time=00:00:03.23 bitrate=3891.7kbits/s speed=0.015x elapsed=0:03:35.07    \nframe=   99 fps=0.5 q=38.4 size=    1536KiB time=00:00:03.23 bitrate=3891.7kbits/s speed=0.015x elapsed=0:03:35.63    \nframe=   99 fps=0.5 q=38.4 size=    1536KiB time=00:00:03.23 bitrate=3891.7kbits/s speed=0.015x elapsed=0:03:36.25    \nframe=   99 fps=0.5 q=38.4 size=    1536KiB time=00:00:03.23 bitrate=3891.7kbits/s speed=0.0149x elapsed=0:03:36.85    \nframe=  100 fps=0.5 q=39.9 size=    1536KiB time=00:00:03.26 bitrate=3852.0kbits/s speed=0.015x elapsed=0:03:37.42    \nframe=  100 fps=0.5 q=39.9 size=    1536KiB time=00:00:03.26 bitrate=3852.0kbits/s speed=0.015x elapsed=0:03:37.97    \nframe=  100 fps=0.5 q=39.9 size=    1536KiB time=00:00:03.26 bitrate=3852.0kbits/s speed=0.0149x elapsed=0:03:38.54    \nframe=  100 fps=0.5 q=39.9 size=    1536KiB time=00:00:03.26 bitrate=3852.0kbits/s speed=0.0149x elapsed=0:03:39.13    \nframe=  100 fps=0.5 q=39.9 size=    1536KiB time=00:00:03.26 bitrate=3852.0kbits/s speed=0.0149x elapsed=0:03:39.68    \nframe=  100 fps=0.5 q=39.9 size=    1536KiB time=00:00:03.26 bitrate=3852.0kbits/s speed=0.0148x elapsed=0:03:40.24    \nframe=  100 fps=0.5 q=39.9 size=    1536KiB time=00:00:03.26 bitrate=3852.0kbits/s speed=0.0148x elapsed=0:03:40.91    \nframe=  100 fps=0.5 q=39.9 size=    1536KiB time=00:00:03.26 bitrate=3852.0kbits/s speed=0.0147x elapsed=0:03:41.51    \nframe=  100 fps=0.5 q=39.9 size=    1536KiB time=00:00:03.26 bitrate=3852.0kbits/s speed=0.0147x elapsed=0:03:42.08    \nframe=  100 fps=0.4 q=39.9 size=    1536KiB time=00:00:03.26 bitrate=3852.0kbits/s speed=0.0147x elapsed=0:03:42.68    \nframe=  100 fps=0.4 q=39.9 size=    1536KiB time=00:00:03.26 bitrate=3852.0kbits/s speed=0.0146x elapsed=0:03:43.39    \nframe=  100 fps=0.4 q=39.9 size=    1536KiB time=00:00:03.26 bitrate=3852.0kbits/s speed=0.0146x elapsed=0:03:43.99    \nframe=  101 fps=0.4 q=43.2 size=    1536KiB time=00:00:03.30 bitrate=3813.1kbits/s speed=0.0147x elapsed=0:03:44.57    \nframe=  101 fps=0.4 q=43.2 size=    1536KiB time=00:00:03.30 bitrate=3813.1kbits/s speed=0.0147x elapsed=0:03:45.14    \nframe=  101 fps=0.4 q=43.2 size=    1536KiB time=00:00:03.30 bitrate=3813.1kbits/s speed=0.0146x elapsed=0:03:45.68    \nframe=  101 fps=0.4 q=43.2 size=    1536KiB time=00:00:03.30 bitrate=3813.1kbits/s speed=0.0146x elapsed=0:03:46.39    \nframe=  101 fps=0.4 q=43.2 size=    1536KiB time=00:00:03.30 bitrate=3813.1kbits/s speed=0.0145x elapsed=0:03:47.08    \nframe=  102 fps=0.4 q=43.7 size=    1536KiB time=00:00:03.33 bitrate=3775.0kbits/s speed=0.0146x elapsed=0:03:47.63    \nframe=  103 fps=0.5 q=43.7 size=    1536KiB time=00:00:03.36 bitrate=3737.6kbits/s speed=0.0148x elapsed=0:03:48.21    \nframe=  103 fps=0.5 q=43.7 size=    1536KiB time=00:00:03.36 bitrate=3737.6kbits/s speed=0.0147x elapsed=0:03:48.74    \nframe=  103 fps=0.4 q=43.7 size=    1536KiB time=00:00:03.36 bitrate=3737.6kbits/s speed=0.0147x elapsed=0:03:49.48    \nframe=  103 fps=0.4 q=43.7 size=    1536KiB time=00:00:03.36 bitrate=3737.6kbits/s speed=0.0146x elapsed=0:03:50.18    \nframe=  103 fps=0.4 q=43.7 size=    1536KiB time=00:00:03.36 bitrate=3737.6kbits/s speed=0.0146x elapsed=0:03:50.72    \nframe=  103 fps=0.4 q=43.7 size=    1536KiB time=00:00:03.36 bitrate=3737.6kbits/s speed=0.0146x elapsed=0:03:51.34    \nframe=  103 fps=0.4 q=43.7 size=    1536KiB time=00:00:03.36 bitrate=3737.6kbits/s speed=0.0145x elapsed=0:03:52.07    \nframe=  103 fps=0.4 q=43.7 size=    1536KiB time=00:00:03.36 bitrate=3737.6kbits/s speed=0.0145x elapsed=0:03:52.78    \nframe=  103 fps=0.4 q=43.7 size=    1536KiB time=00:00:03.36 bitrate=3737.6kbits/s speed=0.0144x elapsed=0:03:53.49    \nframe=  103 fps=0.4 q=43.7 size=    1536KiB time=00:00:03.36 bitrate=3737.6kbits/s speed=0.0144x elapsed=0:03:54.07    \nframe=  103 fps=0.4 q=43.7 size=    1536KiB time=00:00:03.36 bitrate=3737.6kbits/s speed=0.0143x elapsed=0:03:54.67    \nframe=  103 fps=0.4 q=43.7 size=    1536KiB time=00:00:03.36 bitrate=3737.6kbits/s speed=0.0143x elapsed=0:03:55.40    \nframe=  103 fps=0.4 q=43.7 size=    1536KiB time=00:00:03.36 bitrate=3737.6kbits/s speed=0.0143x elapsed=0:03:56.13    \nframe=  103 fps=0.4 q=43.7 size=    1536KiB time=00:00:03.36 bitrate=3737.6kbits/s speed=0.0142x elapsed=0:03:56.84    \nframe=  104 fps=0.4 q=38.3 size=    1536KiB time=00:00:03.40 bitrate=3701.0kbits/s speed=0.0143x elapsed=0:03:57.47    \nframe=  104 fps=0.4 q=38.3 size=    1536KiB time=00:00:03.40 bitrate=3701.0kbits/s speed=0.0143x elapsed=0:03:58.05    \nframe=  104 fps=0.4 q=38.3 size=    1536KiB time=00:00:03.40 bitrate=3701.0kbits/s speed=0.0142x elapsed=0:03:58.62    \nframe=  104 fps=0.4 q=38.3 size=    1536KiB time=00:00:03.40 bitrate=3701.0kbits/s speed=0.0142x elapsed=0:03:59.35    \nframe=  104 fps=0.4 q=38.3 size=    1536KiB time=00:00:03.40 bitrate=3701.0kbits/s speed=0.0142x elapsed=0:04:00.05    \nframe=  104 fps=0.4 q=38.3 size=    1536KiB time=00:00:03.40 bitrate=3701.0kbits/s speed=0.0141x elapsed=0:04:00.71    \nframe=  104 fps=0.4 q=38.3 size=    1536KiB time=00:00:03.40 bitrate=3701.0kbits/s speed=0.0141x elapsed=0:04:01.37    \nframe=  104 fps=0.4 q=38.3 size=    1536KiB time=00:00:03.40 bitrate=3701.0kbits/s speed=0.0141x elapsed=0:04:01.92    \nframe=  105 fps=0.4 q=42.2 size=    1536KiB time=00:00:03.43 bitrate=3665.0kbits/s speed=0.0142x elapsed=0:04:02.52    \nframe=  105 fps=0.4 q=42.2 size=    1536KiB time=00:00:03.43 bitrate=3665.0kbits/s speed=0.0141x elapsed=0:04:03.26    \nframe=  105 fps=0.4 q=42.2 size=    1536KiB time=00:00:03.43 bitrate=3665.0kbits/s speed=0.0141x elapsed=0:04:03.99    \nframe=  105 fps=0.4 q=42.2 size=    1536KiB time=00:00:03.43 bitrate=3665.0kbits/s speed=0.014x elapsed=0:04:04.69    \nframe=  105 fps=0.4 q=42.2 size=    1536KiB time=00:00:03.43 bitrate=3665.0kbits/s speed=0.014x elapsed=0:04:05.26    \nframe=  105 fps=0.4 q=42.2 size=    1536KiB time=00:00:03.43 bitrate=3665.0kbits/s speed=0.014x elapsed=0:04:05.80    \nframe=  105 fps=0.4 q=42.2 size=    1536KiB time=00:00:03.43 bitrate=3665.0kbits/s speed=0.0139x elapsed=0:04:06.36    \nframe=  105 fps=0.4 q=42.2 size=    1536KiB time=00:00:03.43 bitrate=3665.0kbits/s speed=0.0139x elapsed=0:04:07.05    \nframe=  105 fps=0.4 q=42.2 size=    1536KiB time=00:00:03.43 bitrate=3665.0kbits/s speed=0.0139x elapsed=0:04:07.70    \nframe=  105 fps=0.4 q=42.2 size=    1536KiB time=00:00:03.43 bitrate=3665.0kbits/s speed=0.0138x elapsed=0:04:08.38    \nframe=  105 fps=0.4 q=42.2 size=    1536KiB time=00:00:03.43 bitrate=3665.0kbits/s speed=0.0138x elapsed=0:04:08.95    \nframe=  106 fps=0.4 q=43.1 size=    1536KiB time=00:00:03.46 bitrate=3629.8kbits/s speed=0.0139x elapsed=0:04:09.50    \nframe=  106 fps=0.4 q=43.1 size=    1536KiB time=00:00:03.46 bitrate=3629.8kbits/s speed=0.0139x elapsed=0:04:10.05    \nframe=  107 fps=0.4 q=43.8 size=    1536KiB time=00:00:03.50 bitrate=3595.2kbits/s speed=0.014x elapsed=0:04:10.62    \nframe=  107 fps=0.4 q=43.8 size=    1536KiB time=00:00:03.50 bitrate=3595.2kbits/s speed=0.0139x elapsed=0:04:11.31    \nframe=  107 fps=0.4 q=43.8 size=    1536KiB time=00:00:03.50 bitrate=3595.2kbits/s speed=0.0139x elapsed=0:04:11.98    \nframe=  107 fps=0.4 q=43.8 size=    1536KiB time=00:00:03.50 bitrate=3595.2kbits/s speed=0.0139x elapsed=0:04:12.64    \nframe=  108 fps=0.4 q=43.9 size=    1536KiB time=00:00:03.53 bitrate=3561.3kbits/s speed=0.014x elapsed=0:04:13.20    \nframe=  108 fps=0.4 q=43.9 size=    1536KiB time=00:00:03.53 bitrate=3561.3kbits/s speed=0.0139x elapsed=0:04:13.82    \nframe=  108 fps=0.4 q=43.9 size=    1536KiB time=00:00:03.53 bitrate=3561.3kbits/s speed=0.0139x elapsed=0:04:14.41    \nframe=  108 fps=0.4 q=43.9 size=    1536KiB time=00:00:03.53 bitrate=3561.3kbits/s speed=0.0139x elapsed=0:04:15.07    \nframe=  108 fps=0.4 q=43.9 size=    1536KiB time=00:00:03.53 bitrate=3561.3kbits/s speed=0.0138x elapsed=0:04:15.61    \nframe=  108 fps=0.4 q=43.9 size=    1536KiB time=00:00:03.53 bitrate=3561.3kbits/s speed=0.0138x elapsed=0:04:16.17    \nframe=  108 fps=0.4 q=43.9 size=    1536KiB time=00:00:03.53 bitrate=3561.3kbits/s speed=0.0138x elapsed=0:04:16.72    \nframe=  108 fps=0.4 q=43.9 size=    1536KiB time=00:00:03.53 bitrate=3561.3kbits/s speed=0.0137x elapsed=0:04:17.27    \nframe=  108 fps=0.4 q=43.9 size=    1536KiB time=00:00:03.53 bitrate=3561.3kbits/s speed=0.0137x elapsed=0:04:17.81    \nframe=  108 fps=0.4 q=43.9 size=    1536KiB time=00:00:03.53 bitrate=3561.3kbits/s speed=0.0137x elapsed=0:04:18.34    \nframe=  108 fps=0.4 q=43.9 size=    1536KiB time=00:00:03.53 bitrate=3561.3kbits/s speed=0.0136x elapsed=0:04:18.90    \nframe=  108 fps=0.4 q=43.9 size=    1536KiB time=00:00:03.53 bitrate=3561.3kbits/s speed=0.0136x elapsed=0:04:19.46    \nframe=  108 fps=0.4 q=43.9 size=    1536KiB time=00:00:03.53 bitrate=3561.3kbits/s speed=0.0136x elapsed=0:04:20.02    \nframe=  109 fps=0.4 q=38.4 size=    1536KiB time=00:00:03.56 bitrate=3528.0kbits/s speed=0.0137x elapsed=0:04:20.53    \nframe=  109 fps=0.4 q=38.4 size=    1536KiB time=00:00:03.56 bitrate=3528.0kbits/s speed=0.0137x elapsed=0:04:21.07    \nframe=  109 fps=0.4 q=38.4 size=    1536KiB time=00:00:03.56 bitrate=3528.0kbits/s speed=0.0136x elapsed=0:04:21.60    \nframe=  109 fps=0.4 q=38.4 size=    1536KiB time=00:00:03.56 bitrate=3528.0kbits/s speed=0.0136x elapsed=0:04:22.12    \nframe=  109 fps=0.4 q=38.4 size=    1536KiB time=00:00:03.56 bitrate=3528.0kbits/s speed=0.0136x elapsed=0:04:22.69    \nframe=  109 fps=0.4 q=38.4 size=    1536KiB time=00:00:03.56 bitrate=3528.0kbits/s speed=0.0136x elapsed=0:04:23.21    \nframe=  109 fps=0.4 q=38.4 size=    1536KiB time=00:00:03.56 bitrate=3528.0kbits/s speed=0.0135x elapsed=0:04:23.75    \nframe=  110 fps=0.4 q=42.1 size=    1536KiB time=00:00:03.60 bitrate=3495.4kbits/s speed=0.0136x elapsed=0:04:24.33    \nframe=  110 fps=0.4 q=42.1 size=    1536KiB time=00:00:03.60 bitrate=3495.4kbits/s speed=0.0136x elapsed=0:04:24.87    \nframe=  110 fps=0.4 q=42.1 size=    1536KiB time=00:00:03.60 bitrate=3495.4kbits/s speed=0.0136x elapsed=0:04:25.41    \nframe=  110 fps=0.4 q=42.1 size=    1536KiB time=00:00:03.60 bitrate=3495.4kbits/s speed=0.0135x elapsed=0:04:25.96    \nframe=  110 fps=0.4 q=42.1 size=    1536KiB time=00:00:03.60 bitrate=3495.4kbits/s speed=0.0135x elapsed=0:04:26.55    \nframe=  111 fps=0.4 q=43.2 size=    1792KiB time=00:00:03.63 bitrate=4040.5kbits/s speed=0.0136x elapsed=0:04:27.08    \nframe=  113 fps=0.4 q=43.0 size=    1792KiB time=00:00:03.70 bitrate=3967.7kbits/s speed=0.0138x elapsed=0:04:27.60    \nframe=  113 fps=0.4 q=43.0 size=    1792KiB time=00:00:03.70 bitrate=3967.7kbits/s speed=0.0138x elapsed=0:04:28.11    \nframe=  113 fps=0.4 q=43.0 size=    1792KiB time=00:00:03.70 bitrate=3967.7kbits/s speed=0.0138x elapsed=0:04:28.65    \nframe=  113 fps=0.4 q=43.0 size=    1792KiB time=00:00:03.70 bitrate=3967.7kbits/s speed=0.0137x elapsed=0:04:29.20    \nframe=  114 fps=0.4 q=38.4 size=    1792KiB time=00:00:03.73 bitrate=3932.3kbits/s speed=0.0138x elapsed=0:04:29.72    \nframe=  114 fps=0.4 q=38.4 size=    1792KiB time=00:00:03.73 bitrate=3932.3kbits/s speed=0.0138x elapsed=0:04:30.24    \nframe=  114 fps=0.4 q=38.4 size=    1792KiB time=00:00:03.73 bitrate=3932.3kbits/s speed=0.0138x elapsed=0:04:30.75    \nframe=  114 fps=0.4 q=38.4 size=    1792KiB time=00:00:03.73 bitrate=3932.3kbits/s speed=0.0138x elapsed=0:04:31.27    \nframe=  115 fps=0.4 q=41.9 size=    1792KiB time=00:00:03.76 bitrate=3897.5kbits/s speed=0.0139x elapsed=0:04:31.81    \nframe=  115 fps=0.4 q=41.9 size=    1792KiB time=00:00:03.76 bitrate=3897.5kbits/s speed=0.0138x elapsed=0:04:32.34    \nframe=  115 fps=0.4 q=41.9 size=    1792KiB time=00:00:03.76 bitrate=3897.5kbits/s speed=0.0138x elapsed=0:04:32.85    \nframe=  116 fps=0.4 q=43.2 size=    1792KiB time=00:00:03.80 bitrate=3863.3kbits/s speed=0.0139x elapsed=0:04:33.37    \nframe=  117 fps=0.4 q=43.1 size=    1792KiB time=00:00:03.83 bitrate=3829.7kbits/s speed=0.014x elapsed=0:04:33.89    \nframe=  118 fps=0.4 q=43.0 size=    1792KiB time=00:00:03.86 bitrate=3796.7kbits/s speed=0.0141x elapsed=0:04:34.42    \nframe=  118 fps=0.4 q=43.0 size=    1792KiB time=00:00:03.86 bitrate=3796.7kbits/s speed=0.0141x elapsed=0:04:34.95    \nframe=  118 fps=0.4 q=43.0 size=    1792KiB time=00:00:03.86 bitrate=3796.7kbits/s speed=0.014x elapsed=0:04:35.47    \nframe=  119 fps=0.4 q=38.4 size=    1792KiB time=00:00:03.90 bitrate=3764.2kbits/s speed=0.0141x elapsed=0:04:35.99    \nframe=  119 fps=0.4 q=38.4 size=    1792KiB time=00:00:03.90 bitrate=3764.2kbits/s speed=0.0141x elapsed=0:04:36.53    \nframe=  119 fps=0.4 q=38.4 size=    1792KiB time=00:00:03.90 bitrate=3764.2kbits/s speed=0.0141x elapsed=0:04:37.06    \nframe=  120 fps=0.4 q=41.3 size=    1792KiB time=00:00:03.93 bitrate=3732.3kbits/s speed=0.0142x elapsed=0:04:37.58    \nframe=  120 fps=0.4 q=41.3 size=    1792KiB time=00:00:03.93 bitrate=3732.3kbits/s speed=0.0141x elapsed=0:04:38.11    \nframe=  121 fps=0.4 q=43.0 size=    1792KiB time=00:00:03.96 bitrate=3700.9kbits/s speed=0.0142x elapsed=0:04:38.64    \nframe=  122 fps=0.4 q=43.1 size=    1792KiB time=00:00:04.00 bitrate=3670.1kbits/s speed=0.0143x elapsed=0:04:39.17    \nframe=  122 fps=0.4 q=43.1 size=    1792KiB time=00:00:04.00 bitrate=3670.1kbits/s speed=0.0143x elapsed=0:04:39.68    \nframe=  123 fps=0.4 q=38.4 size=    1792KiB time=00:00:04.03 bitrate=3639.8kbits/s speed=0.0144x elapsed=0:04:40.21    \nframe=  123 fps=0.4 q=38.4 size=    1792KiB time=00:00:04.03 bitrate=3639.8kbits/s speed=0.0144x elapsed=0:04:40.73    \nframe=  124 fps=0.4 q=41.5 size=    1792KiB time=00:00:04.06 bitrate=3609.9kbits/s speed=0.0145x elapsed=0:04:41.25    \nframe=  125 fps=0.4 q=43.1 size=    1792KiB time=00:00:04.10 bitrate=3580.6kbits/s speed=0.0146x elapsed=0:04:41.77    \nframe=  126 fps=0.4 q=43.1 size=    1792KiB time=00:00:04.13 bitrate=3551.7kbits/s speed=0.0146x elapsed=0:04:42.29    \nframe=  126 fps=0.4 q=43.1 size=    1792KiB time=00:00:04.13 bitrate=3551.7kbits/s speed=0.0146x elapsed=0:04:42.81    \nframe=  127 fps=0.4 q=38.4 size=    2048KiB time=00:00:04.16 bitrate=4026.6kbits/s speed=0.0147x elapsed=0:04:43.32    \nframe=  127 fps=0.4 q=38.4 size=    2048KiB time=00:00:04.16 bitrate=4026.6kbits/s speed=0.0147x elapsed=0:04:43.83    \nframe=  127 fps=0.4 q=38.4 size=    2048KiB time=00:00:04.16 bitrate=4026.6kbits/s speed=0.0147x elapsed=0:04:44.37    \nframe=  128 fps=0.4 q=42.0 size=    2048KiB time=00:00:04.20 bitrate=3994.7kbits/s speed=0.0147x elapsed=0:04:44.91    \nframe=  129 fps=0.5 q=43.1 size=    2048KiB time=00:00:04.23 bitrate=3963.2kbits/s speed=0.0148x elapsed=0:04:45.43    \nframe=  129 fps=0.5 q=43.1 size=    2048KiB time=00:00:04.23 bitrate=3963.2kbits/s speed=0.0148x elapsed=0:04:45.95    \nframe=  130 fps=0.5 q=43.1 size=    2048KiB time=00:00:04.26 bitrate=3932.2kbits/s speed=0.0149x elapsed=0:04:46.48    \nframe=  130 fps=0.5 q=43.1 size=    2048KiB time=00:00:04.26 bitrate=3932.2kbits/s speed=0.0149x elapsed=0:04:46.99    \nframe=  132 fps=0.5 q=38.3 size=    2048KiB time=00:00:04.33 bitrate=3871.7kbits/s speed=0.0151x elapsed=0:04:47.50    \nframe=  132 fps=0.5 q=38.3 size=    2048KiB time=00:00:04.33 bitrate=3871.7kbits/s speed=0.015x elapsed=0:04:48.05    \nframe=  132 fps=0.5 q=38.3 size=    2048KiB time=00:00:04.33 bitrate=3871.7kbits/s speed=0.015x elapsed=0:04:48.58    \nframe=  132 fps=0.5 q=38.3 size=    2048KiB time=00:00:04.33 bitrate=3871.7kbits/s speed=0.015x elapsed=0:04:49.08    \nframe=  132 fps=0.5 q=38.3 size=    2048KiB time=00:00:04.33 bitrate=3871.7kbits/s speed=0.015x elapsed=0:04:49.60    \nframe=  133 fps=0.5 q=39.2 size=    2048KiB time=00:00:04.36 bitrate=3842.2kbits/s speed=0.015x elapsed=0:04:50.14    \nframe=  133 fps=0.5 q=39.2 size=    2048KiB time=00:00:04.36 bitrate=3842.2kbits/s speed=0.015x elapsed=0:04:50.65    \nframe=  133 fps=0.5 q=39.2 size=    2048KiB time=00:00:04.36 bitrate=3842.2kbits/s speed=0.015x elapsed=0:04:51.17    \nframe=  133 fps=0.5 q=39.2 size=    2048KiB time=00:00:04.36 bitrate=3842.2kbits/s speed=0.015x elapsed=0:04:51.69    \nframe=  134 fps=0.5 q=43.3 size=    2048KiB time=00:00:04.40 bitrate=3813.1kbits/s speed=0.0151x elapsed=0:04:52.21    \nframe=  136 fps=0.5 q=43.2 size=    2048KiB time=00:00:04.46 bitrate=3756.2kbits/s speed=0.0153x elapsed=0:04:52.74    \nframe=  136 fps=0.5 q=43.2 size=    2048KiB time=00:00:04.46 bitrate=3756.2kbits/s speed=0.0152x elapsed=0:04:53.26    \nframe=  136 fps=0.5 q=43.2 size=    2048KiB time=00:00:04.46 bitrate=3756.2kbits/s speed=0.0152x elapsed=0:04:53.78    \nframe=  137 fps=0.5 q=38.4 size=    2048KiB time=00:00:04.50 bitrate=3728.3kbits/s speed=0.0153x elapsed=0:04:54.31    \nframe=  138 fps=0.5 q=42.1 size=    2048KiB time=00:00:04.53 bitrate=3700.9kbits/s speed=0.0154x elapsed=0:04:54.84    \nframe=  138 fps=0.5 q=42.1 size=    2048KiB time=00:00:04.53 bitrate=3700.9kbits/s speed=0.0153x elapsed=0:04:55.44    \nframe=  139 fps=0.5 q=43.1 size=    2048KiB time=00:00:04.56 bitrate=3673.9kbits/s speed=0.0154x elapsed=0:04:55.99    \nframe=  139 fps=0.5 q=43.1 size=    2048KiB time=00:00:04.56 bitrate=3673.9kbits/s speed=0.0154x elapsed=0:04:56.51    \nframe=  140 fps=0.5 q=43.1 size=    2048KiB time=00:00:04.60 bitrate=3647.3kbits/s speed=0.0155x elapsed=0:04:57.03    \nframe=  141 fps=0.5 q=43.1 size=    2048KiB time=00:00:04.63 bitrate=3621.1kbits/s speed=0.0156x elapsed=0:04:57.55    \nframe=  141 fps=0.5 q=43.1 size=    2048KiB time=00:00:04.63 bitrate=3621.1kbits/s speed=0.0155x elapsed=0:04:58.09    \nframe=  142 fps=0.5 q=39.1 size=    2048KiB time=00:00:04.66 bitrate=3595.2kbits/s speed=0.0156x elapsed=0:04:58.64    \nframe=  142 fps=0.5 q=39.1 size=    2048KiB time=00:00:04.66 bitrate=3595.2kbits/s speed=0.0156x elapsed=0:04:59.16    \nframe=  142 fps=0.5 q=39.1 size=    2048KiB time=00:00:04.66 bitrate=3595.2kbits/s speed=0.0156x elapsed=0:04:59.69    \nframe=  142 fps=0.5 q=39.1 size=    2048KiB time=00:00:04.66 bitrate=3595.2kbits/s speed=0.0155x elapsed=0:05:00.24    \nframe=  142 fps=0.5 q=39.1 size=    2048KiB time=00:00:04.66 bitrate=3595.2kbits/s speed=0.0155x elapsed=0:05:00.79    \nframe=  142 fps=0.5 q=39.1 size=    2048KiB time=00:00:04.66 bitrate=3595.2kbits/s speed=0.0155x elapsed=0:05:01.35    \nframe=  142 fps=0.5 q=39.1 size=    2048KiB time=00:00:04.66 bitrate=3595.2kbits/s speed=0.0155x elapsed=0:05:01.95    \nframe=  142 fps=0.5 q=39.1 size=    2048KiB time=00:00:04.66 bitrate=3595.2kbits/s speed=0.0154x elapsed=0:05:02.52    \nframe=  143 fps=0.5 q=41.2 size=    2304KiB time=00:00:04.70 bitrate=4015.9kbits/s speed=0.0155x elapsed=0:05:03.15    \nframe=  143 fps=0.5 q=41.2 size=    2304KiB time=00:00:04.70 bitrate=4015.9kbits/s speed=0.0155x elapsed=0:05:03.73    \nframe=  143 fps=0.5 q=41.2 size=    2304KiB time=00:00:04.70 bitrate=4015.9kbits/s speed=0.0154x elapsed=0:05:04.31    \nframe=  143 fps=0.5 q=41.2 size=    2304KiB time=00:00:04.70 bitrate=4015.9kbits/s speed=0.0154x elapsed=0:05:04.89    \nframe=  143 fps=0.5 q=41.2 size=    2304KiB time=00:00:04.70 bitrate=4015.9kbits/s speed=0.0154x elapsed=0:05:05.46    \nframe=  143 fps=0.5 q=41.2 size=    2304KiB time=00:00:04.70 bitrate=4015.9kbits/s speed=0.0154x elapsed=0:05:06.03    \nframe=  143 fps=0.5 q=41.2 size=    2304KiB time=00:00:04.70 bitrate=4015.9kbits/s speed=0.0153x elapsed=0:05:06.58    \nframe=  143 fps=0.5 q=41.2 size=    2304KiB time=00:00:04.70 bitrate=4015.9kbits/s speed=0.0153x elapsed=0:05:07.14    \nframe=  143 fps=0.5 q=41.2 size=    2304KiB time=00:00:04.70 bitrate=4015.9kbits/s speed=0.0153x elapsed=0:05:07.74    \nframe=  144 fps=0.5 q=43.2 size=    2304KiB time=00:00:04.73 bitrate=3987.6kbits/s speed=0.0154x elapsed=0:05:08.32    \nframe=  145 fps=0.5 q=43.1 size=    2304KiB time=00:00:04.76 bitrate=3959.7kbits/s speed=0.0154x elapsed=0:05:08.85    \nframe=  145 fps=0.5 q=43.1 size=    2304KiB time=00:00:04.76 bitrate=3959.7kbits/s speed=0.0154x elapsed=0:05:09.39    \nframe=  146 fps=0.5 q=43.1 size=    2304KiB time=00:00:04.80 bitrate=3932.2kbits/s speed=0.0155x elapsed=0:05:09.96    \nframe=  146 fps=0.5 q=43.1 size=    2304KiB time=00:00:04.80 bitrate=3932.2kbits/s speed=0.0155x elapsed=0:05:10.55    \nframe=  146 fps=0.5 q=43.1 size=    2304KiB time=00:00:04.80 bitrate=3932.2kbits/s speed=0.0154x elapsed=0:05:11.15    \nframe=  146 fps=0.5 q=43.1 size=    2304KiB time=00:00:04.80 bitrate=3932.2kbits/s speed=0.0154x elapsed=0:05:11.69    \nframe=  146 fps=0.5 q=43.1 size=    2304KiB time=00:00:04.80 bitrate=3932.2kbits/s speed=0.0154x elapsed=0:05:12.33    \nframe=  146 fps=0.5 q=43.1 size=    2304KiB time=00:00:04.80 bitrate=3932.2kbits/s speed=0.0153x elapsed=0:05:12.84    \nframe=  146 fps=0.5 q=43.1 size=    2304KiB time=00:00:04.80 bitrate=3932.2kbits/s speed=0.0153x elapsed=0:05:13.36    \nframe=  146 fps=0.5 q=43.1 size=    2304KiB time=00:00:04.80 bitrate=3932.2kbits/s speed=0.0153x elapsed=0:05:13.92    \nframe=  146 fps=0.5 q=43.1 size=    2304KiB time=00:00:04.80 bitrate=3932.2kbits/s speed=0.0153x elapsed=0:05:14.54    \nframe=  146 fps=0.5 q=43.1 size=    2304KiB time=00:00:04.80 bitrate=3932.2kbits/s speed=0.0152x elapsed=0:05:15.13    \nframe=  146 fps=0.5 q=43.1 size=    2304KiB time=00:00:04.80 bitrate=3932.2kbits/s speed=0.0152x elapsed=0:05:15.67    \nframe=  146 fps=0.5 q=43.1 size=    2304KiB time=00:00:04.80 bitrate=3932.2kbits/s speed=0.0152x elapsed=0:05:16.21    \nframe=  146 fps=0.5 q=43.1 size=    2304KiB time=00:00:04.80 bitrate=3932.2kbits/s speed=0.0152x elapsed=0:05:16.83    \nframe=  146 fps=0.5 q=43.1 size=    2304KiB time=00:00:04.80 bitrate=3932.2kbits/s speed=0.0151x elapsed=0:05:17.44    \nframe=  146 fps=0.5 q=43.1 size=    2304KiB time=00:00:04.80 bitrate=3932.2kbits/s speed=0.0151x elapsed=0:05:18.00    \nframe=  147 fps=0.5 q=40.8 size=    2304KiB time=00:00:04.83 bitrate=3905.1kbits/s speed=0.0152x elapsed=0:05:18.55    \nframe=  147 fps=0.5 q=40.8 size=    2304KiB time=00:00:04.83 bitrate=3905.1kbits/s speed=0.0151x elapsed=0:05:19.24    \nframe=  147 fps=0.5 q=40.8 size=    2304KiB time=00:00:04.83 bitrate=3905.1kbits/s speed=0.0151x elapsed=0:05:19.86    \nframe=  147 fps=0.5 q=40.8 size=    2304KiB time=00:00:04.83 bitrate=3905.1kbits/s speed=0.0151x elapsed=0:05:20.38    \nframe=  147 fps=0.5 q=40.8 size=    2304KiB time=00:00:04.83 bitrate=3905.1kbits/s speed=0.0151x elapsed=0:05:20.90    \nframe=  147 fps=0.5 q=40.8 size=    2304KiB time=00:00:04.83 bitrate=3905.1kbits/s speed=0.015x elapsed=0:05:21.58    \nframe=  147 fps=0.5 q=40.8 size=    2304KiB time=00:00:04.83 bitrate=3905.1kbits/s speed=0.015x elapsed=0:05:22.23    \nframe=  147 fps=0.5 q=40.8 size=    2304KiB time=00:00:04.83 bitrate=3905.1kbits/s speed=0.015x elapsed=0:05:22.78    \nframe=  147 fps=0.5 q=40.8 size=    2304KiB time=00:00:04.83 bitrate=3905.1kbits/s speed=0.0149x elapsed=0:05:23.31    \nframe=  147 fps=0.5 q=40.8 size=    2304KiB time=00:00:04.83 bitrate=3905.1kbits/s speed=0.0149x elapsed=0:05:23.93    \nframe=  147 fps=0.5 q=40.8 size=    2304KiB time=00:00:04.83 bitrate=3905.1kbits/s speed=0.0149x elapsed=0:05:24.58    \nframe=  147 fps=0.5 q=40.8 size=    2304KiB time=00:00:04.83 bitrate=3905.1kbits/s speed=0.0149x elapsed=0:05:25.22    \nframe=  148 fps=0.5 q=41.1 size=    2304KiB time=00:00:04.86 bitrate=3878.4kbits/s speed=0.0149x elapsed=0:05:25.75    \nframe=  148 fps=0.5 q=41.1 size=    2304KiB time=00:00:04.86 bitrate=3878.4kbits/s speed=0.0149x elapsed=0:05:26.31    \nframe=  148 fps=0.5 q=41.1 size=    2304KiB time=00:00:04.86 bitrate=3878.4kbits/s speed=0.0149x elapsed=0:05:26.96    \nframe=  148 fps=0.5 q=41.1 size=    2304KiB time=00:00:04.86 bitrate=3878.4kbits/s speed=0.0149x elapsed=0:05:27.60    \nframe=  148 fps=0.5 q=41.1 size=    2304KiB time=00:00:04.86 bitrate=3878.4kbits/s speed=0.0148x elapsed=0:05:28.18    \nframe=  148 fps=0.5 q=41.1 size=    2304KiB time=00:00:04.86 bitrate=3878.4kbits/s speed=0.0148x elapsed=0:05:28.73    \n[mp4 @ 00000253fd6ea980] Starting second pass: moving the moov atom to the beginning of the file\n[out#0/mp4 @ 00000253fd6f1700] video:2438KiB audio:0KiB subtitle:0KiB other streams:0KiB global headers:2KiB muxing overhead: 0.206365%\nframe=  150 fps=0.5 q=43.1 Lsize=    2443KiB time=00:00:04.93 bitrate=4056.8kbits/s speed=0.015x elapsed=0:05:29.09    \nx265 [info]: frame I:      1, Avg QP:34.39  kb/s: 18291.84\nx265 [info]: frame P:     31, Avg QP:38.58  kb/s: 6673.96 \nx265 [info]: frame B:    118, Avg QP:43.06  kb/s: 3168.15 \nx265 [info]: Weighted P-Frames: Y:0.0% UV:0.0%\n\nencoded 150 frames in 328.29s (0.46 fps), 3993.51 kb/s, Avg QP:42.07\n",
  "seconds": 330.2754101753235,
  "probe_out": {}
}